<svg id="c8514a2d-cf49-4f73-ba8b-b5e0670ecb3c" data-name="圖層 1" xmlns="http://www.w3.org/2000/svg" viewBox="0 0 1468 871"><defs><style>.\37 a50a5dc-0c61-4ebd-9c74-001950792738{fill:#fed058;}.e9b30f21-f347-4225-80d0-0443e47c1f7c{fill:#f1daba;}.b0d6477b-b7a2-4b1f-b2d5-b1773828a059{fill:#040000;}.dce0dc7a-8c41-4bc1-944a-42b5d4c336a9{fill:#050101;}.\37 a1bffd9-8e95-4331-af45-17a64db3b7f5{fill:#050202;}.\31 2825c27-16fb-4d1e-8fca-62ab3f612593{fill:#060302;}</style></defs><path class="7a50a5dc-0c61-4ebd-9c74-001950792738" d="M1305.49,871H1150.77c-2.22-2.48-1.75-5.42-1.24-8.27,6-32.94,3.25-66.12,2.21-99.19-.64-20.42-7-39.88-13.93-59-9.12-25.12-14.54-51.48-25.66-76-3-6.5-6-12.84-10.48-18.41-7.35-9.14-12.26-19.62-17.06-30.21-2.62-5.78-2-10.55,1.26-16.27,11.29-20,19.86-40.95,24.08-63.81,3.49-18.93-4.29-33-17.06-44.68-15.87-14.51-36.09-19.66-57-20.77-11.51-.61-23.18.3-34.78.13-15.73-.23-28.95,5.53-40.19,16.1a248.5,248.5,0,0,0-31,35.7c-6.88,9.52-8.14,10-17.85,3.65C876.74,466.92,837,456.71,796,450.16c-2.86-.46-6-.24-8.54-1.5-19.29-9.5-40.41-9.66-61-12.5-9.43-1.3-18.64,1-28,.38-43-2.64-84.7,3.75-125.71,16.68-13.74,4.33-28.13,6.91-42.25,10.15-8.64,2-14.81.17-20.73-6.12-29.06-30.86-66.51-34.45-105.2-29.73-23,2.81-42.57,16.43-54.07,35.91-17,28.81-22.69,60.22-5.15,91.87a179.36,179.36,0,0,0,12.1,19.78c4.91,6.65,4.21,12.31.48,19.52C350,610,338.47,623.76,334.5,641c-6.89,29.9-10.65,60.1-7.94,91,1.46,16.69,3.29,33.33,6,49.83,4.51,27.71,11.35,54.87,22.08,80.93,1.09,2.63,2.65,5.25,1.26,8.29H106.39a10,10,0,0,1-2.5-7.13c-.08-37-2.07-74.2,6.26-110.68,5.42-23.75,14.09-46.11,30.31-65.07,7.37-8.61,15.83-15.16,26.42-18.77,22.57-7.7,45.37-14.63,69.12-17.78,3.91-.52,7.6-1.6,10.6-4.26,7.51-6.68,4.92-18.35-5.59-19.77-20.51-2.78-36.34-14.77-52.88-24.93-28.15-17.27-44.39-43.19-49.48-76-2.81-18.13-6.63-36.14-5.86-54.67,1.12-26.84,5-53.21,13.22-78.84.79-2.46,1.5-5.06,3.1-7.05,16.14-20,28.87-42.55,49.2-59.34,13.89-11.47,27-23.67,42.32-33.47,28.21-18,58.33-29.9,91.63-33.86,19.16-2.27,38-7.87,57.53-6,26.51,2.61,53.54.56,79.43,8.83a76.93,76.93,0,0,1,20,9.39c11.17,7.54,21,2.62,22.43-10.85.35-3.21.17-6.44.2-9.66a419.91,419.91,0,0,1,25.93-142.8C557,56.3,597,30.18,649.43,21.73c34.06-5.49,67.11-.07,98.32,16.13,41,21.27,77.28,48.67,111,79.93,15.61,14.48,22.6,32.56,23.47,53.34.38,9.23-2.87,17.72-6.67,26-2.15,4.68-5,9.1-6.25,14.13-2.35,9.12,3.63,16.15,13,15.41,4.29-.34,8-2.17,11.68-4.34,20.81-12.39,43.58-16.43,67.51-17.45,49.74-2.12,96.9,7.3,141.12,30.07C1126,247,1149.8,259,1167.45,279.64c29.82,34.79,48.12,74.4,49.73,120.82.6,17.32,3.56,34.54.28,52-2,10.5-3.67,20.8-8.72,30.44-5.93,11.31-3.51,18.7,7.38,25.14a70,70,0,0,0,11.27,5.55c29.69,11,53.19,31.26,76.49,51.59,21.19,18.49,32.19,43.9,44.21,68.57,23.43,48.13,18.54,97,4.37,146.12-8.56,29.69-22.39,56.88-39.09,82.72A37.67,37.67,0,0,1,1305.49,871Z"/><path class="e9b30f21-f347-4225-80d0-0443e47c1f7c" d="M1119.82,871H390.69c-6.66-2.61-9.37-8.55-12-14.46-12.26-27.6-19.07-56.69-23.42-86.43-2.29-15.61-3.9-31.3-5.44-47a105.06,105.06,0,0,1,.34-24.1c1.26-9.57,2.54-19.14,3.27-28.78,1.19-15.62,5.4-30.27,14.3-43.56,6.95-10.37,11.3-22.35,20.47-31.44,5.13-5.08,3.17-11.31.1-17C382.36,567.11,374.81,557,368,546.51c-17.84-27.37-6.26-78.24,30-92.11,9.07-3.47,18.15-3.65,27.5-3.87,29.87-.71,55.84,7.81,75.83,31.15a44.54,44.54,0,0,0,10.07,9C516,493.57,521.14,495,526,492c10.46-6.45,22.35-8.18,33.92-10.73,28.92-6.36,56.8-17.67,86.57-19.73,29.5-2,59.13-3.62,88.57,1.44,3.2.55,6.4,1,9.59.36a29.24,29.24,0,0,1,18.86,2.52c12.44,6,25.78,7.84,39.17,9.94,34.39,5.41,67,15.82,96.56,34.8a89.2,89.2,0,0,1,13.38,11.05c12,11.53,19.44,9.72,27.24-5.38,10-19.36,23.77-35.86,40.39-50,4.3-3.65,9.25-6.27,14.75-6.73,22.47-1.87,45-3.82,66.78,4.7,21.39,8.36,28.36,22.43,21.38,44.44-6.51,20.55-15.55,40.11-23.92,59.91-1.93,4.56-2.25,8.77-.29,13,5.25,11.38,9,23.67,16.86,33.59,13.79,17.35,20.94,37.63,26.75,58.47,4.94,17.71,10.54,35.17,17,52.38a119.87,119.87,0,0,1,7.9,36.75c1.36,32.15,2.54,64.39-2.09,96.43C1124.75,863.63,1124.6,868.5,1119.82,871Z"/><path class="7a50a5dc-0c61-4ebd-9c74-001950792738" d="M1119.82,871c5.11-18,6.29-36.59,6-55.16-.42-26.86,2.86-54.3-6.23-80.22-10.78-30.76-18.4-62.52-30.52-92.82a81.35,81.35,0,0,0-12-20.67c-10.08-12.65-15.09-28-21.88-42.35-1.75-3.7-1.23-7.39.62-11.13,9.88-20,18.63-40.49,25.14-61.74,6.44-21,2.51-29.79-17.55-39.16-21.56-10.07-45-7.51-68-5.77-10,.76-17,7.85-22.9,14.63-12.35,14.18-25.17,28.08-32.92,45.81-5,11.44-16.3,13.72-24.23,5.7-22-22.22-49.3-34-78.82-42.12-19.41-5.36-40.14-5.52-58.74-12.27-28.9-10.48-58.38-9.08-88-11-49.38-3.27-94.86,13.69-141.63,24.19-7.45,1.67-14.64,3.43-21.21,8-5.87,4-12.34,2.32-17.63-2.27-6.55-5.68-13.24-11.28-19.24-17.53a61.48,61.48,0,0,0-35.59-18.82c-15.88-2.64-31.9-5.9-47.57-1.78-25.66,6.75-38.78,24.52-43.73,50.7-3.44,18.18,2.67,32.48,11.26,46.83,4.75,7.93,10.43,15.3,15.29,23.18,7,11.39,5,15.92-2.87,26.49-16,21.47-30.61,43.92-31,72.31-.08,5.42-1.33,10.81-1.83,16.24-4.05,43.61,3.55,85.9,14.17,127.92,4.77,18.88,10.62,37.15,22.56,52.91H355.88c-13.33-27-20.09-56-25.2-85.5-4.89-28.27-9.47-56.75-7.33-85.39,1.94-25.95,2.34-52.63,15.14-76.55,6.08-11.36,12.27-22.7,19.18-33.56,2.9-4.56,1.95-7.24-.7-11.09-7-10.12-13.56-20.47-18.57-31.79-8.48-19.15-6.85-38.4-1.61-57.92,11-41,45.77-68.46,88.62-66.44,24.29,1.15,49.14,3.38,70.47,18.29,7.51,5.25,13.11,12.21,19.71,18.23,3.13,2.85,5.33,3.32,9.88,2.41,35.21-7,69.37-18.27,104.49-25.5A120.75,120.75,0,0,1,653.72,434c33.66-.13,67.35-1.13,101,1.78,11,.95,20.13,7.47,30.49,9.47,23.45,4.53,46.79,9.24,69.92,15.38,21.46,5.69,40.1,16.6,58.65,27.76,6.48,3.9,9.64,3.75,13.44-2.34,8.69-13.93,19.87-25.81,31.65-37.1,11.37-10.89,24.75-17.25,40.91-17,15,.21,30.26-1.83,44.88.46,26.7,4.18,51.54,12.9,64.73,40.07,8.49,17.47,3.2,34.1-2.55,50.37s-10.48,33.06-21.9,46.65c-1.87,2.23-.19,4.51.52,6,5.49,11.29,10.25,22.9,18.16,33,11.64,14.88,17,32.8,22.5,50.61,7.56,24.63,16,49,23.2,73.73,3.54,12.09,5.73,24.62,5.37,37.44-.38,13.74,1,27.43,1.6,41.14.82,20-2.69,39.84-5.51,59.63Z"/><path class="b0d6477b-b7a2-4b1f-b2d5-b1773828a059" d="M660.64,781.48c-.77,9.92-6.23,14-14.14,16-20.9,5.21-42.3,5.73-63.62,7.05-8.31.51-15.21-4.45-16.16-11.87-1.08-8.49,2.46-14,10.89-16.57a47.12,47.12,0,0,1,15.23-1.74,143.34,143.34,0,0,0,41.7-5c4.24-1.13,8.92-1.09,13.36-.85C655.3,768.87,660.78,775.31,660.64,781.48Z"/><path class="dce0dc7a-8c41-4bc1-944a-42b5d4c336a9" d="M580.07,703.48c.87-8.65,1.07-14.76,2.19-20.7,1.43-7.59,6.76-11.53,14.27-11.55,8.35,0,13.6,5.42,14.14,13a146.91,146.91,0,0,1-1.4,29.6c-.83,6.26-5.93,9.63-12.33,10.14-7,.56-11.79-2.93-14.41-9C580.64,710.59,579.47,705.82,580.07,703.48Z"/><path class="7a1bffd9-8e95-4331-af45-17a64db3b7f5" d="M529.09,633.37c0,7.85-6.71,14.26-14.95,14.38-9.81.14-17.24-6.47-17.17-15.27a14.73,14.73,0,0,1,15.67-14.58C521.68,618.26,529.13,625.26,529.09,633.37Z"/><path class="12825c27-16fb-4d1e-8fca-62ab3f612593" d="M696.46,646.59c-7.88,0-14.33-6.91-14.12-15a14.11,14.11,0,0,1,14.16-13.9,14.43,14.43,0,0,1,14.31,14.91C710.59,640,703.83,646.63,696.46,646.59Z"/></svg>