<svg id="3bdf4cec-5954-4087-973f-5cac57720e5a" data-name="圖層 1" xmlns="http://www.w3.org/2000/svg" viewBox="0 0 1468 871"><defs><style>.\34 5a29c13-81e7-4d8b-91fa-b98600f12578{fill:#f1daba;}.f8648a73-774c-4508-a871-a0ca34418acb{fill:#fed058;}.e85a0913-0359-4f2a-9f43-a5fff0776ae5{fill:#060203;}.\34 53c6e78-9ad8-4398-a885-96a7841b4b10{fill:#0c0908;}.ad304fae-d3a4-47fd-a058-bc69e1056629{fill:#080504;}</style></defs><path class="45a29c13-81e7-4d8b-91fa-b98600f12578" d="M1196.58,871H254.45c-2.88-3.1-3.23-6.95-2.95-10.84,4.53-61.22,11-122.13,33.65-179.91,7.75-19.77,19.55-37.6,29.56-56.27q9.28-17.31,18.9-34.48c13-23.28,31.56-41.71,50.73-59.67,5.77-5.4,12.87-8.18,20.26-10.71,15.37-5.25,17.52-17.08,4.91-27.65-9.77-8.18-19.6-16.13-27.15-26.61-10.5-14.57-11.12-35-1.13-49.87,4.58-6.83,10.87-11.06,19-11.88,18.66-1.89,36.91-.16,54.55,6.8,13.65,5.39,23.62,14.77,29.54,27.87,6,13.3,18.62,20.27,27.62,30.66,5.54,6.4,13.7,3.14,20.35-.56A319.38,319.38,0,0,1,645.74,430c49.95-6.61,99.6-16.85,150.43-16,26,.43,51.47,3.92,76.9,8.37,22.41,3.92,44.83,7.71,67.41,10.48,5.46.67,10.39,2.83,15.5,4.54,6,2,11.52,1.53,15.9-3.4,4.69-5.29,4.26-11.23,1.54-17.3-7.42-16.57-6.5-20.51,8.07-31.8,32.89-25.47,68.73-29.1,106.59-13.23,19,8,23.5,19.77,16.68,39.28-3.1,8.85-7.51,17.18-13.83,23.89-8.35,8.87-13.26,19.79-19.9,29.66-5.07,7.54-2.59,14.9,2,21.56,7.69,11.09,14.86,22.55,23.36,33.06,46.5,57.52,76,123,91.26,195.1,3.59,17,7.52,33.88,11.2,50.84,6.8,31.3,3.1,62.86,2.36,94.34A17.27,17.27,0,0,1,1196.58,871Z"/><path class="f8648a73-774c-4508-a871-a0ca34418acb" d="M1340.09,871H1233.61c-6-11.29-4-23.64-2.55-35.08,3.55-28.8.74-56.93-5.54-84.87-7.95-35.34-16.44-70.47-27-105.25-16.58-54.69-47-101.08-80.43-146.11-4.14-5.57-8.36-11.08-12.6-16.57-6.1-7.91-6.36-14.82,1.06-22.44,11.1-11.39,20.1-24.32,25.46-39.58,5-14.32,4.65-28.86,1.84-43.34-1.82-9.4-7.39-16.69-15.63-22-54.83-35.58-118.07-30.11-165,16A54.62,54.62,0,0,0,941,389.81c-5.64,13.44-5.68,13.11-20.63,11-26.72-3.79-53.16-9.46-80-12.65-40.41-4.81-80.71-3.06-121,2.54-24.79,3.45-49.6,6.77-74.49,9.63-26.41,3-52,11-77.06,20.07-12.69,4.57-25.21,9.67-37.55,15.14-7.35,3.26-12.64,1.18-16.74-5.28a17,17,0,0,1-1.75-3c-18.6-49.65-87.51-60.51-125.8-51-20.63,5.12-38,29-40.38,53.11-2.25,23,2,43.75,19.27,60.48,5.74,5.57,7.94,11,.35,17.3-33.25,27.71-55.53,63.64-75.69,101.25-18,33.64-37.88,66.61-45.94,104.39C235,753.43,225.78,794,224.76,836c-.28,11.59.35,23.88-5,35H90.1c-6.6-5.68-5.46-13-4.41-20.37,4.29-30.08,16.4-57.76,26.64-86,3.93-10.85,7.26-22,13.22-32,14.45-24.35,37.1-38.69,61.86-50.16,10.11-4.68,20.9-7.92,31.45-11.63,14.67-5.16,15.92-10.9,11.51-25.6-11.48-38.27-29.71-74.47-33.54-115.16-2-21.06.41-41.67,2.85-62.14,3.69-31,10.73-61.22,26.07-89.35,8.85-16.23,16.39-33.09,27.8-47.84a92.29,92.29,0,0,1,24.72-22.35c26.65-16.49,55.26-27.6,86.59-30.11,26.06-2.09,51.28,4.63,76.58,9.65a16.69,16.69,0,0,1,2.22.64c25.65,8.93,38.53,3.94,43.43-24.17C491,241.83,500.33,220,509.85,199c17.26-38.15,49.28-59.12,88.79-67.32,69.73-14.47,134.8-1.65,190.57,43.54,28.05,22.73,47.77,52.52,47.1,91.44-.14,8.15,1.55,15.8,10.37,18.75,9.33,3.13,15.68-2.21,20.38-9.32,8.35-12.61,18.61-23.64,28.63-34.8,15.44-17.18,35.67-27.31,57.4-33.15,63.29-17,126.79-21.56,190,1a22.58,22.58,0,0,1,2.18.76c40.45,19.33,72.43,48,93.79,87.53,7.68,14.21,8.59,30.28,5.69,46.31-.82,4.55-1.79,9.08-2.67,13.62-3.77,19.58-.25,25.5,18.7,31.81,12.69,4.22,23.62,11.54,33.1,20.67,12,11.52,24.68,22.11,37.24,32.93,33.4,28.76,49.72,65,51.8,109.31,2.16,46-14.94,85.9-33.2,126-10.35,22.73-24,42.94-42.33,60.09-12.43,11.61-13.31,19.3-4.74,33.8,16.42,27.77,26.31,58.27,37.7,88.15C1341.73,863.74,1343.15,867.45,1340.09,871Z"/><path class="f8648a73-774c-4508-a871-a0ca34418acb" d="M219.73,871a783.39,783.39,0,0,1,12.63-118.37c5.7-30.49,11-61.24,25-88.52C285.45,609.24,310,551.65,358.11,509.66c3.74-3.27,7.51-6.49,11.32-9.79-5.06-6.2-10.25-12.25-15.11-18.55-23.5-30.49-13.47-83.08,19.23-103.38,12.78-7.94,27.27-8.35,40.88-8.26a143.29,143.29,0,0,1,58.78,13c19.08,8.72,32.13,23,40.56,41.72,4,8.88,7.55,12.28,18.46,7.17C567,415.3,603.63,403,641.65,397.52c26.39-3.78,53-6.37,79.45-10.37,29-4.39,58.07-4.86,87.27-4.66,27.67.19,54.5,6.29,81.61,10.45q16.94,2.6,33.78,5.81c7.33,1.4,11.7,0,13.88-8.34,3.22-12.29,12.06-21.22,21.82-28.79,29.27-22.68,60.88-35.8,99.57-30.87,23.62,3,43.62,11.8,63,24.07,10.26,6.49,15,16.57,16.37,27.63,3.61,28.18-4.72,53-23.92,74-13.93,15.21-14,15.11-1.37,31.54,25.85,33.49,51,67.65,68.67,106.17,18.7,40.76,31,83.83,40.41,127.79,6.73,31.39,14.87,62.55,13.35,94.88-.85,18.07-2.35,36.09-2,54.2h-37a382,382,0,0,0,1.81-88.63c-2.37-23.65-9.27-46.86-14.27-70.24q-24-112.28-97.43-200.56c-7.31-8.78-13.26-18.74-19.44-28.4-4-6.22-4.72-13.09-.21-19.44,8.71-12.27,16.18-25.33,25.93-37a47.5,47.5,0,0,0,11.25-34.16c-.42-6.68-3.45-10.38-8.73-13.64-17.65-10.89-36.9-13.87-57.3-13.34-23.56.62-42.43,11.52-59.75,25.85-7.46,6.17-12.65,13.16-2.76,22.71,5.58,5.39,5.75,13.42,1.07,20.08-4.49,6.39-11,10.32-19,7.13-21.24-8.53-44.09-8-66.09-12.26-22.45-4.33-45-8.46-67.87-10.47a395,395,0,0,0-85.11,1.86c-28,3.6-56.17,6.67-84.14,10.81a366.32,366.32,0,0,0-88.73,24.38c-12.25,5.15-24.69,9.7-36,17.17-9.6,6.36-18.14,1.46-26.07-6.29-13.15-12.86-20.9-29.47-32.85-42.73s-29.85-16.08-47.08-18.07c-5-.57-10.07.35-15-.24-13.79-1.63-23.5,4.53-28.38,16.6-5.28,13.06-6.72,27,2.65,39.21a131.51,131.51,0,0,0,28.84,28c7.08,5,10.7,11.18,8.88,19.58-1.72,7.93-7.29,11.75-15.35,13.31-9.55,1.84-16.75,7.9-24.16,14.27-32.87,28.21-51.27,66.18-71.81,102.91-16.46,29.44-31.39,59.55-37.43,92.83-6.75,37.18-15.89,74.12-15.52,112.35.08,8.8-3.22,17.44-2.11,26.39Z"/><path class="e85a0913-0359-4f2a-9f43-a5fff0776ae5" d="M768.29,601.93c-.64,6.33-5.06,12.28-13.4,14.3-20.31,4.92-40.5,10.18-60.54,16.15-12.77,3.8-20.61-.73-23.86-11.29-3-9.71,2.17-18.24,14.29-22.34A540.69,540.69,0,0,1,747.64,582C758.64,579.75,768.56,588.75,768.29,601.93Z"/><path class="e85a0913-0359-4f2a-9f43-a5fff0776ae5" d="M738.24,534.56c-.42,6,.65,12.5-1.75,18.93-3.53,9.44-10.26,13.44-19.7,11.78-9-1.59-13.83-7.63-13.5-17.14a162.58,162.58,0,0,0-1.28-29.9c-1.4-9.32,5.24-18.2,13.64-19.77,9.18-1.71,17.07,3.46,20.3,12.88C738.51,518.8,738.14,526.46,738.24,534.56Z"/><path class="453c6e78-9ad8-4398-a885-96a7841b4b10" d="M779.66,503.07c.18-9.57,7.3-16.49,17-16.49s17.95,8.31,17.67,17.56c-.25,8.26-9.22,16.95-17.55,17C787.19,521.17,779.48,513,779.66,503.07Z"/><path class="ad304fae-d3a4-47fd-a058-bc69e1056629" d="M624.28,527.16c-9.35-.29-16.22-7.68-16.18-17.38,0-10.08,7.64-17.3,17.73-16.85a17,17,0,0,1,16.53,17.2A17.56,17.56,0,0,1,624.28,527.16Z"/></svg>