<svg id="b6e7571f-43ea-4cb5-aae7-85cc07dbb143" data-name="圖層 1" xmlns="http://www.w3.org/2000/svg" viewBox="0 0 1468 871"><defs><style>.\33 df9a266-7245-4fe7-b685-1f8894e6e049{fill:#fed058;}.\37 212cedf-be9e-4838-ba3a-b4e6b51d89bb{fill:#f1daba;}.\30 c9f3295-26f7-4beb-ac9a-df6f7aeb8bc7{fill:#060303;}.\37 536ee61-e891-45fa-8976-3dcf1c804d4a{fill:#070405;}.\35 7484351-35a5-45f3-98b3-e42a7932e84e{fill:#0b0909;}.b0ae034d-26c7-418b-837b-5675909866bc{fill:#0e0b0a;}</style></defs><path class="3df9a266-7245-4fe7-b685-1f8894e6e049" d="M1305.91,871H1174.39c-3-3.18-2.53-7.17-2.52-11,.15-32.74-8.91-63.57-19-94.28-9.14-27.8-24.64-51.53-43.91-73.22-9.11-10.25-8.93-12.91,1.65-23.2,21.73-21.12,35.17-46.88,42.16-75.89,7.2-29.9,6.45-58.83-14.55-84.23-19.91-24.08-51.23-34-80.95-24.72-30.33,9.52-56.36,25.35-73.69,52.94-4.54,7.23-9.81,5.47-15.8,3.05-31.07-12.56-62.14-25.14-93.75-36.25-20.06-7.05-39.37-15.87-59.56-22.71-39.06-13.24-79.61-18.58-119.81-26-6.7-1.23-13-3.78-19.47-5.68-3.93-1.15-5.63-4-6-7.89a113.61,113.61,0,0,1-.23-11.6c.75-47.57-22.62-81.84-61.33-105.88-39.49-24.52-102-13.34-127.1,31.35-5.68,10.11-13.4,19-17.87,29.82-14.12,34.17-15.68,68.73-3.06,103.7,5.95,16.48,6.23,16.86-7.55,27.27-16.94,12.79-30.77,28.45-43,45.45-14.15,19.62-30.65,37.51-43.8,57.75-19.29,29.69-36.46,60.73-54.81,91-19.76,32.62-31.25,68.4-41.53,104.72-4,14-3.15,28.79-6.83,42.87-1.14,4.34-1.22,9-4.45,12.56H106.8a9.08,9.08,0,0,1-2.42-6.16c-.62-39.27-2.49-78.69,7.52-117.19,5.36-20.63,13.35-40.13,27-57.25,10.24-12.83,23.08-20.51,38.26-24.65,19.85-5.41,39.41-12.15,60.06-14.38,7.21-.78,13.09-4.15,13.87-12.37.61-6.47-4.5-10.14-13.25-12.72-42.71-12.59-78.08-35.47-93.62-79-9.61-26.9-12.73-55.89-10.59-84.85,1.63-22.2,4.56-44.22,11.61-65.49,1.32-4,2.34-8.09,4.68-11.62,36.91-55.4,83.58-99.71,148.61-118.68,35.6-10.39,72.75-16.57,110.75-12,16.22,2,32.79,1.43,49,4.5,11.18,2.12,21.63,5.88,31.19,12.38,11.09,7.54,21.22,2.51,22.62-10.77.37-3.53.14-7.09.2-10.63.82-49.37,9-97.33,26.64-143.63,16-42.17,46.93-67.28,89.33-80,41.2-12.32,80.67-8.12,118.93,11,41.3,20.62,77.55,48.22,111.23,79.5C873.36,131,881.13,148,882.63,168.18c.77,10.33-2.56,19.69-6.66,28.88-2,4.41-4.58,8.55-5.84,13.25-3,11.17,4.26,18.49,15.55,15.81a28.7,28.7,0,0,0,8-3.41c21.68-12.83,45.25-17.09,70.27-17.94,49.46-1.67,96.14,8,140.06,30.62,23.22,11.94,46.44,24.09,64,44.32,30.07,34.72,48,74.44,49.65,120.83.65,18,3.84,35.87.13,53.91-2,9.81-3.82,19.47-8.59,28.51-5.94,11.24-3.42,18.7,7.47,25.12,8.08,4.76,17.19,7.35,25.39,11.86,47.92,26.34,84.84,62.06,107,113.69,21.06,49.09,18.12,97.1,3.92,146.34-8.76,30.37-23.53,57.78-40.17,84.36A19.49,19.49,0,0,1,1305.91,871Z"/><path class="7212cedf-be9e-4838-ba3a-b4e6b51d89bb" d="M1145.38,871H286.67c-1.72-1.91-1.36-4.18-1.07-6.42,3.76-29.12,9.79-57.67,19.85-85.36,12.51-34.44,32.23-65,49.91-96.76C380.29,637.66,412,598.11,443.28,558c10.42-13.38,24.85-22.36,37.22-33.61,11.37-10.34,13.2-14.92,7.24-29.47-7-17.11-12.35-34.3-12.44-53.21-.08-15.91,2.59-31.09,9.47-45,10.12-20.41,20.38-41.16,42.33-52.3,24.49-12.43,49.53-12.47,71.54,3,28.39,20,48.32,46.37,46.51,84-.36,7.39,0,14.82,0,22.23s3.6,11.12,10.44,14.2c28.38,12.75,59.05,15.62,89,21.14a463.58,463.58,0,0,1,97.86,29.19c16.29,6.92,33.17,12.44,49.82,18.5,30.88,11.24,60.79,24.76,91.18,37.14,13.37,5.45,19.91,1.33,20-13,.07-11.34,4.75-19.65,13.4-26.44,14.25-11.2,29.31-20.42,46.59-26.86,32.06-12,68.89,18.83,69.13,49.33.3,37.52-13.75,68.94-39,95.89-5.29,5.64-10.87,11-15.22,17.46-7.92,11.76-7.3,19,2.49,29.15,6,6.26,12.37,12.21,18,18.86,28.67,33.74,39.1,74.81,47,116.85,1.6,8.5,2.69,17.19,2.1,25.95C1147.72,864.5,1148.1,868.13,1145.38,871Z"/><path class="3df9a266-7245-4fe7-b685-1f8894e6e049" d="M1145.38,871c.91-47-12-90.5-33.95-131.44-7.71-14.42-19.42-26.26-31.51-37.4-12.76-11.75-13-21.82-2-35.54,14.58-18.09,32.66-33.5,41.24-56.18,8-21.13,14.29-42.24,8.86-65.07s-36.55-46.69-66.63-34.66c-17.56,7-32.65,17-46.7,28.92-5.84,5-9.34,11.52-8.87,20.27,1,18-7,22.39-23.81,15.56-43.22-17.55-86.46-35-130.24-51.18-26.18-9.67-51.92-20.77-79.07-27.2C746.8,491,720.34,487,694.09,482.27c-10.93-2-22-3.36-31.33-10.23a8.28,8.28,0,0,0-2.5-1.36c-18.24-5.24-17.79-5.24-17.83-24.34,0-12.78,2.39-25.88-1.84-38.35-11.27-33.2-30.68-60-66.4-68-26.25-5.9-53.51,3.33-70.34,28.27-17,25.18-28.34,51.44-25.86,82.63,1.34,16.91,7.91,32,13.74,47.48,4.05,10.74,3,18-6,24.61-32.73,23.78-55.51,56.36-80.14,87.56-32.81,41.56-57.73,88-82.76,134.06-16.13,29.68-27.87,62.6-30.52,97.53-.74,9.72-3.67,19.27-5.6,28.89h-29c5-39.34,12.83-77.84,27.94-114.87,11.33-27.78,25.7-53.78,42-78.64,15.63-23.88,26.29-50.77,45.25-72.62,19.4-22.34,35.25-47.52,54.92-69.69,8.62-9.72,19-17.33,29.12-25.2,4.75-3.69,5.86-6.79,3.43-12.64-19.47-46.92-14.48-91.15,12.35-134.51,15.54-25.11,34.65-43.82,63.45-50.58,31.7-7.44,61.44-1.94,86.82,19.24,23.95,20,41.57,44.68,47.62,75.86,2.12,10.9,1.16,22.45,1.18,33.7,0,4,.59,5.58,5.13,7,23.61,7.31,48.06,10.45,72.22,14.53,34.9,5.9,68.13,16.59,100.88,29.44,41,16.1,82.14,32,123.17,48.08,3.91,1.53,5.71.74,8.11-2.95,23.41-35.93,57-56,99.48-58.32,32.23-1.74,64.81,24.09,74.5,55.29,9.39,30.23,2.27,58.79-8.87,86.92-7.69,19.43-19.48,36-34.54,50.49-9.86,9.45-10.09,9.93-.78,19.79,38,40.26,53,90.22,61.62,143.14,2,12.22,1.45,24.37,1.76,36.57Z"/><path class="0c9f3295-26f7-4beb-ac9a-df6f7aeb8bc7" d="M665.92,749.49c-.36,5.18-3.68,9.69-9.29,12.32-17.38,8.17-36.12,10.73-55,11.56-10.12.45-17-6.71-17-14.58,0-9,5.94-13.18,17.78-14.11,14.36-1.13,28.56-3.33,42.12-8.82C655.86,731.29,666,737.49,665.92,749.49Z"/><path class="7536ee61-e891-45fa-8976-3dcf1c804d4a" d="M635.93,643c-2.45,10.52-4.43,20.91-7.38,31-2.44,8.38-9.91,12.74-17,10.5-8.22-2.59-12.15-9-10.85-17.13a219.4,219.4,0,0,1,7.61-31.65c2.38-7.47,8.92-9.91,16.41-8.35C633.12,629.15,635.35,635.64,635.93,643Z"/><path class="57484351-35a5-45f3-98b3-e42a7932e84e" d="M768.89,673.87a14,14,0,0,1-14.33-13.74c0-8.06,5.74-13.81,13.89-13.92,8.48-.12,14.13,5.31,14.08,13.49C782.47,668.24,777.18,673.74,768.89,673.87Z"/><path class="b0ae034d-26c7-418b-837b-5675909866bc" d="M565.58,576.65a14.21,14.21,0,0,1-.85-28.41c8-.23,13.95,5.53,14.23,13.72C579.22,569.69,573,576.49,565.58,576.65Z"/></svg>