<svg id="2def9eb8-1f99-4da9-85c7-61a0dd063b78" data-name="圖層 1" xmlns="http://www.w3.org/2000/svg" viewBox="0 0 1468 871"><defs><style>.\30 69464d8-b58a-41b1-9845-55fdb44b891e{fill:#fed058;}.\34 fc777c7-53d2-4701-a314-ea43124e10ba{fill:#f1daba;}.\34 ec82c42-bca3-45ae-86f7-3774b63027f5{fill:#060303;}.\30 cb5c653-fc14-490b-a55e-565d5e6b4270{fill:#070405;}.\39 fb81278-6a9b-4d4a-9b8e-f7780f066efc{fill:#0b0909;}.\33 04a387f-e487-49c3-aeee-ab183e04b221{fill:#0e0b0a;}</style></defs><path class="069464d8-b58a-41b1-9845-55fdb44b891e" d="M162.09,871H293.61c3-3.18,2.53-7.17,2.52-11-.15-32.74,8.91-63.57,19-94.28,9.14-27.8,24.64-51.53,43.91-73.22,9.11-10.25,8.93-12.91-1.65-23.2-21.73-21.12-35.17-46.88-42.16-75.89-7.2-29.9-6.45-58.83,14.55-84.23,19.91-24.08,51.23-34,80.95-24.72C441,494,467.08,509.81,484.41,537.4c4.54,7.23,9.81,5.47,15.8,3.05,31.07-12.56,62.14-25.14,93.75-36.25,20.06-7.05,39.37-15.87,59.56-22.71,39.06-13.24,79.61-18.58,119.81-26,6.7-1.23,13-3.78,19.47-5.68,3.93-1.15,5.63-4,6-7.89a113.61,113.61,0,0,0,.23-11.6c-.75-47.57,22.62-81.84,61.33-105.88,39.49-24.52,102-13.34,127.1,31.35,5.68,10.11,13.4,19,17.87,29.82,14.12,34.17,15.68,68.73,3.06,103.7-5.95,16.48-6.23,16.86,7.55,27.27,16.94,12.79,30.77,28.45,43,45.45,14.15,19.62,30.65,37.51,43.8,57.75,19.29,29.69,36.46,60.73,54.81,91,19.76,32.62,31.25,68.4,41.53,104.72,4,14,3.15,28.79,6.83,42.87,1.14,4.34,1.22,9,4.45,12.56H1361.2a9.08,9.08,0,0,0,2.42-6.16c.62-39.27,2.49-78.69-7.52-117.19-5.36-20.63-13.35-40.13-27-57.25-10.24-12.83-23.08-20.51-38.26-24.65-19.85-5.41-39.41-12.15-60.06-14.38-7.21-.78-13.09-4.15-13.87-12.37-.61-6.47,4.5-10.14,13.25-12.72,42.71-12.59,78.08-35.47,93.62-79,9.61-26.9,12.73-55.89,10.59-84.85-1.63-22.2-4.56-44.22-11.61-65.49-1.32-4-2.34-8.09-4.68-11.62-36.91-55.4-83.58-99.71-148.61-118.68-35.6-10.39-72.75-16.57-110.75-12-16.22,2-32.79,1.43-49,4.5-11.18,2.12-21.63,5.88-31.19,12.38-11.09,7.54-21.22,2.51-22.62-10.77-.37-3.53-.14-7.09-.2-10.63-.82-49.37-9-97.33-26.64-143.63-16-42.17-46.93-67.28-89.33-80-41.2-12.32-80.67-8.12-118.93,11-41.3,20.62-77.55,48.22-111.23,79.5C594.64,131,586.87,148,585.37,168.18c-.77,10.33,2.56,19.69,6.66,28.88,2,4.41,4.58,8.55,5.84,13.25,3,11.17-4.26,18.49-15.55,15.81a28.7,28.7,0,0,1-8-3.41c-21.68-12.83-45.25-17.09-70.27-17.94-49.46-1.67-96.14,8-140.06,30.62-23.22,11.94-46.44,24.09-64,44.32-30.07,34.72-48,74.44-49.65,120.83-.65,18-3.84,35.87-.13,53.91,2,9.81,3.82,19.47,8.59,28.51,5.94,11.24,3.42,18.7-7.47,25.12-8.08,4.76-17.19,7.35-25.39,11.86C178.08,546.29,141.17,582,119,633.63,98,682.72,100.9,730.74,115.09,780c8.76,30.37,23.53,57.78,40.17,84.36A19.49,19.49,0,0,0,162.09,871Z"/><path class="4fc777c7-53d2-4701-a314-ea43124e10ba" d="M322.62,871h858.71c1.72-1.91,1.36-4.18,1.07-6.42-3.76-29.12-9.79-57.67-19.85-85.36-12.51-34.44-32.23-65-49.91-96.76-24.93-44.8-56.68-84.35-87.92-124.46-10.42-13.38-24.85-22.36-37.22-33.61-11.37-10.34-13.2-14.92-7.24-29.47,7-17.11,12.35-34.3,12.44-53.21.08-15.91-2.59-31.09-9.47-45-10.12-20.41-20.38-41.16-42.33-52.3-24.49-12.43-49.53-12.47-71.54,3-28.39,20-48.32,46.37-46.51,84,.36,7.39,0,14.82,0,22.23s-3.6,11.12-10.44,14.2c-28.38,12.75-59.05,15.62-89,21.14a463.58,463.58,0,0,0-97.86,29.19c-16.29,6.92-33.17,12.44-49.82,18.5-30.88,11.24-60.79,24.76-91.18,37.14-13.37,5.45-19.91,1.33-20-13-.07-11.34-4.75-19.65-13.4-26.44-14.25-11.2-29.31-20.42-46.59-26.86-32.06-12-68.89,18.83-69.13,49.33-.3,37.52,13.75,68.94,39,95.89,5.29,5.64,10.87,11,15.22,17.46,7.92,11.76,7.3,19-2.49,29.15-6,6.26-12.37,12.21-18,18.86-28.67,33.74-39.1,74.81-47,116.85-1.6,8.5-2.69,17.19-2.1,25.95C320.28,864.5,319.9,868.13,322.62,871Z"/><path class="069464d8-b58a-41b1-9845-55fdb44b891e" d="M322.62,871c-.91-47,12-90.5,33.95-131.44,7.71-14.42,19.42-26.26,31.51-37.4,12.76-11.75,13-21.82,2-35.54-14.58-18.09-32.66-33.5-41.24-56.18-8-21.13-14.29-42.24-8.86-65.07s36.55-46.69,66.63-34.66c17.56,7,32.65,17,46.7,28.92,5.84,5,9.34,11.52,8.87,20.27-1,18,7,22.39,23.81,15.56,43.22-17.55,86.46-35,130.24-51.18,26.18-9.67,51.92-20.77,79.07-27.2C721.2,491,747.66,487,773.91,482.27c10.93-2,22-3.36,31.33-10.23a8.28,8.28,0,0,1,2.5-1.36c18.24-5.24,17.79-5.24,17.83-24.34,0-12.78-2.39-25.88,1.84-38.35,11.27-33.2,30.68-60,66.4-68,26.25-5.9,53.51,3.33,70.34,28.27,17,25.18,28.34,51.44,25.86,82.63-1.34,16.91-7.91,32-13.74,47.48-4.05,10.74-3,18,6,24.61,32.73,23.78,55.51,56.36,80.14,87.56,32.81,41.56,57.73,88,82.76,134.06,16.13,29.68,27.87,62.6,30.52,97.53.74,9.72,3.67,19.27,5.6,28.89h29c-5-39.34-12.83-77.84-27.94-114.87-11.33-27.78-25.7-53.78-42-78.64-15.63-23.88-26.29-50.77-45.25-72.62-19.4-22.34-35.25-47.52-54.92-69.69-8.62-9.72-19-17.33-29.12-25.2-4.75-3.69-5.86-6.79-3.43-12.64,19.47-46.92,14.48-91.15-12.35-134.51-15.54-25.11-34.65-43.82-63.45-50.58-31.7-7.44-61.44-1.94-86.82,19.24-23.95,20-41.57,44.68-47.62,75.86-2.12,10.9-1.16,22.45-1.18,33.7,0,4-.59,5.58-5.13,7-23.61,7.31-48.06,10.45-72.22,14.53C684,468.46,650.8,479.14,618.06,492c-41,16.1-82.14,32-123.17,48.08-3.91,1.53-5.71.74-8.11-2.95-23.41-35.93-57-56-99.48-58.32-32.23-1.74-64.81,24.09-74.5,55.29-9.39,30.23-2.27,58.79,8.87,86.92,7.69,19.43,19.48,36,34.54,50.49,9.86,9.45,10.09,9.93.78,19.79-38,40.26-53,90.22-61.62,143.14-2,12.22-1.45,24.37-1.76,36.57Z"/><path class="4ec82c42-bca3-45ae-86f7-3774b63027f5" d="M802.08,749.49c.36,5.18,3.68,9.69,9.29,12.32,17.38,8.17,36.12,10.73,55,11.56,10.12.45,17-6.71,17-14.58,0-9-5.94-13.18-17.78-14.11-14.36-1.13-28.56-3.33-42.12-8.82C812.14,731.29,802,737.49,802.08,749.49Z"/><path class="0cb5c653-fc14-490b-a55e-565d5e6b4270" d="M832.07,643c2.45,10.52,4.43,20.91,7.38,31,2.44,8.38,9.91,12.74,17,10.5,8.22-2.59,12.15-9,10.85-17.13a219.4,219.4,0,0,0-7.61-31.65c-2.38-7.47-8.92-9.91-16.41-8.35C834.88,629.15,832.65,635.64,832.07,643Z"/><path class="9fb81278-6a9b-4d4a-9b8e-f7780f066efc" d="M699.11,673.87a14,14,0,0,0,14.33-13.74c0-8.06-5.74-13.81-13.89-13.92-8.48-.12-14.13,5.31-14.08,13.49C685.53,668.24,690.82,673.74,699.11,673.87Z"/><path class="304a387f-e487-49c3-aeee-ab183e04b221" d="M902.42,576.65a14.21,14.21,0,0,0,.85-28.41c-8-.23-13.95,5.53-14.23,13.72C888.78,569.69,895,576.49,902.42,576.65Z"/></svg>