<svg xmlns="http://www.w3.org/2000/svg" width="82.554" height="153.856" viewBox="0 0 82.554 153.856">
  <g id="balloon_pink" transform="matrix(0.951, 0.309, -0.309, 0.951, -1810.725, -1663.741)">
    <path id="Path_296" data-name="Path 296" d="M2320.59,1048.46a59.054,59.054,0,0,1-1.739,14.605,40.51,40.51,0,0,1-5.831,12.225,35.706,35.706,0,0,1-3.244,4.8,87.561,87.561,0,0,1-7.981,7.426c-1.875,1.518-3.61,3.2-5.578,4.611-3,2.158-5.261,2.295-8.336.343a15.626,15.626,0,0,0-4.641-2.426,4.6,4.6,0,0,1-2.029-1.731c-1.76-2.192-4.21-3.49-6.464-5a25.6,25.6,0,0,1-6.894-7.335c-1.542-2.3-2.751-4.776-4.118-7.166a35.589,35.589,0,0,1-3.716-10.161c-.97-4.4-.747-8.809-.423-13.176a27.376,27.376,0,0,1,4.113-12.384,68.765,68.765,0,0,1,5.1-7.207,16.163,16.163,0,0,1,5.231-4.284c1.179-.582,2.308-1.271,3.432-1.958,2.7-1.65,5.793-2.193,8.711-3.234a27.266,27.266,0,0,1,6.783-1.089c3.161-.293,6.214.8,9.149,2a31.853,31.853,0,0,1,7.59,4.49,18.371,18.371,0,0,1,4.027,4.751c1.255,2,2.558,4,3.6,6.109a49.249,49.249,0,0,1,1.632,4.8C2320.332,1041.132,2320.437,1044.969,2320.59,1048.46Z" transform="translate(0 0)" fill="#f1b8d2"/>
    <path id="Path_297" data-name="Path 297" d="M2372.674,1362.145a66.567,66.567,0,0,0-1.435,7.292,30.493,30.493,0,0,0,1.615,17.851c4.748,11.835,3.328,23.132-3.1,33.943-1.147,1.929-2.012,4.058-3.754,5.6-.965.857-1.957,1.16-3.016.26-.977-.83-.824-1.862.117-3.107a42.2,42.2,0,0,0,7.94-16.922c1.381-6.6.176-12.878-2.2-19.065-1.645-4.284-2.8-8.734-2.3-13.374a78.357,78.357,0,0,1,1.926-12.363,5.078,5.078,0,0,1,.742-1.591,1.824,1.824,0,0,1,2.167-.643C2372.2,1360.28,2372.641,1360.935,2372.674,1362.145Z" transform="translate(-78.562 -262.879)" fill="#080606"/>
  </g>
</svg>
