<svg xmlns="http://www.w3.org/2000/svg" width="1056" height="13.891" viewBox="0 0 1056 13.891">
  <g id="Group_102" data-name="Group 102" transform="translate(412.002 -2870.327)">
    <path id="Path_301" data-name="Path 301" d="M-412,2882.718c12.277,0,12.277-10.891,24.555-10.891s12.279,10.891,24.557,10.891,12.279-10.891,24.557-10.891,12.278,10.891,24.556,10.891,12.279-10.891,24.558-10.891,12.278,10.891,24.556,10.891,12.279-10.891,24.557-10.891,12.279,10.891,24.558,10.891,12.279-10.891,24.557-10.891,12.279,10.891,24.557,10.891,12.279-10.891,24.557-10.891,12.279,10.891,24.557,10.891,12.279-10.891,24.558-10.891,12.279,10.891,24.558,10.891,12.279-10.891,24.558-10.891,12.279,10.891,24.558,10.891,12.279-10.891,24.558-10.891,12.279,10.891,24.557,10.891,12.279-10.891,24.558-10.891,12.279,10.891,24.559,10.891,12.279-10.891,24.558-10.891,12.279,10.891,24.558,10.891,12.279-10.891,24.558-10.891,12.278,10.891,24.556,10.891,12.278-10.891,24.556-10.891,12.278,10.891,24.556,10.891,12.278-10.891,24.557-10.891,12.28,10.891,24.56,10.891,12.279-10.891,24.557-10.891,12.279,10.891,24.558,10.891,12.279-10.891,24.558-10.891,12.279,10.891,24.558,10.891,12.279-10.891,24.558-10.891,12.28,10.891,24.56,10.891,12.28-10.891,24.561-10.891,12.28,10.891,24.559,10.891,12.279-10.891,24.557-10.891,12.28,10.891,24.56,10.891,12.28-10.891,24.56-10.891,12.28,10.891,24.561,10.891,12.28-10.891,24.56-10.891,12.282,10.891,24.564,10.891,12.282-10.891,24.564-10.891" fill="none" stroke="#d5d4d1" stroke-miterlimit="10" stroke-width="3"/>
  </g>
</svg>
