<svg xmlns="http://www.w3.org/2000/svg" width="335" height="468" viewBox="0 0 335 468">
  <g id="c-app" transform="translate(0.401 -0.031)">
    <rect id="Rectangle_12" data-name="Rectangle 12" width="335" height="468" rx="30" transform="translate(-0.401 0.031)" fill="#a07ec4"/>
    <rect id="Rectangle_15" data-name="Rectangle 15" width="289" height="406" rx="30" transform="translate(22.599 31.031)" fill="#e9e5e5"/>
    <text id="APP" transform="translate(131.599 346.031)" fill="#2f323a" font-size="44" font-family="ConcertOne-Regular, Concert One" letter-spacing="0.015em"><tspan x="0" y="0">APP</tspan></text>
    <g id="Group_120" data-name="Group 120" transform="translate(122.797 81.031)">
      <path id="Path_302" data-name="Path 302" d="M3011.371,121.973c.268,5.866-.72,11.369-.725,16.921,0,3.787-.779,7.538-.733,11.333a140.118,140.118,0,0,1-.543,15.422c-1.113,11.3-.466,22.609-.625,33.912-.01.7-.208.882-.887.9-5.51.177-11.017.414-16.531.464-9.112.084-18.218.444-27.33.533-1.953.019-3.9-.015-5.849-.02-5.513-.013-11.034-.026-16.536.265-5.1.269-10.2.1-15.3.244-3.7.105-7.405-.034-11.108.168-1.947.106-1.916.011-1.959-1.906-.116-5.234.089-10.464.293-15.689.209-5.306.151-10.622.468-15.919.6-10.114.651-20.244,1.014-30.364.349-9.729.17-19.455.141-29.18a125.769,125.769,0,0,0-.166-12.6c-.177-1.717.314-2.217,2.016-2.044,2.185.222,4.368.406,6.556.583a33.161,33.161,0,0,0,7.424-.025,11.569,11.569,0,0,1,1.342-.065c6.768-.172,13.524-.708,20.305-.541,1.282.032,2.594-.248,3.9-.193,5.452.228,10.9.515,16.354.691,3.145.1,6.3.079,9.443.033,8.79-.127,17.57.249,26.353.48.691.018.965.144,1.03.935.3,3.607.637,7.215.893,10.821C3010.966,112.176,3011.685,117.205,3011.371,121.973Z" transform="translate(-2912.989 -72.203)" fill="#f2cf4a"/>
      <path id="Path_303" data-name="Path 303" d="M2912.516,473.6c.461-6.249-.119-12.5-.045-18.748.012-1.023.31-1.372,1.316-1.348a36.6,36.6,0,0,0,5.631-.176c1.43-.187,2.856.168,4.271.12,5.433-.186,10.87-.083,16.3-.234,5.508-.153,11.017-.56,16.523-.414,9.356.248,18.7-.181,28.045-.347,7.6-.135,15.2-.083,22.789-.623.866-.062,1.076.188,1.093,1.052.088,4.653.557,9.284.859,13.926.206,3.176.3,6.36.587,9.533q.131,1.462.229,2.928c.031.47,0,.874-.644.966-3.984.574-7.964,1.3-12.008.992-3.28-.25-6.555-.611-9.814-1.059-2.105-.29-4.22-.265-6.324-.371-3.34-.168-6.712.171-10.039-.1-4.261-.344-8.492.053-12.733.106-2.854.035-5.713.253-8.57.165-4.517-.138-9.012-.556-13.5-1.137-3.446-.446-6.954-.027-10.389-.344-2.977-.274-5.938.406-8.884-.186a2.366,2.366,0,0,0-1.672.236c-.9.528-1.744-.1-2.619-.106-.464,0-.385-.574-.392-.91C2912.5,476.218,2912.516,474.91,2912.516,473.6Z" transform="translate(-2912.464 -324.029)" fill="#29b4e9"/>
      <path id="Path_304" data-name="Path 304" d="M3010.963,43.5c-8.125-.508-16.489-.474-24.853-.43-7.92.042-15.819-.445-23.726-.794a41.561,41.561,0,0,0-5.856.208,62.775,62.775,0,0,1-7.351.079c-5.312-.11-10.585.578-15.884.7a71.619,71.619,0,0,1-12.075-.742,3.285,3.285,0,0,0-.6-.088c-2.1.091-2.126.094-2.1-1.95.055-5.308-.641-10.589-.529-15.9.027-1.286.395-2.486.509-3.74.06-.667.625-.876,1.261-.871a67.954,67.954,0,0,1,7.083.1c2.495.285,4.975.141,7.459.238,6.776.266,13.56-.014,20.336.325.851.043,1.71-.094,2.565-.134a65.429,65.429,0,0,1,9.469.7,29.858,29.858,0,0,0,3.8.065c6.87-.206,13.713.419,20.557.776,5.045.262,10.107.438,15.134.955a53.623,53.623,0,0,0,6.329.425c.616-.01.718.25.749.8.1,1.767-.377,3.5-.269,5.258.249,4.038.284,8.078.261,12.121C3013.214,43.6,3013.223,43.6,3010.963,43.5Z" transform="translate(-2916.342 -19.93)" fill="#d01"/>
      <path id="Path_305" data-name="Path 305" d="M3055.816,312.976c-1.311.082-2.122-.463-2.266-1.448a2.146,2.146,0,0,1,1.955-2.246c1.837-.343,3.708-.471,5.557-.664a23.665,23.665,0,0,0,6.94-2.082,4.1,4.1,0,0,1,1.943-.61,1.817,1.817,0,0,1,.746,3.435c-2.68,1.225-5.339,2.529-8.335,2.851C3060.14,312.451,3057.928,312.728,3055.816,312.976Z" transform="translate(-3011.791 -221.297)" fill="#090608"/>
      <path id="Path_306" data-name="Path 306" d="M3079.53,234.029a26.152,26.152,0,0,1,.4-4.387,6.064,6.064,0,0,0-.6-3.89,1.864,1.864,0,1,1,3.134-2c1.343,1.872,1.367,4.036,1.159,6.2a45,45,0,0,0-.423,5.222c.031,1.571-.732,2.549-1.873,2.506-1.175-.044-1.793-.883-1.8-2.44C3079.529,234.863,3079.53,234.495,3079.53,234.029Z" transform="translate(-3029.701 -162.744)" fill="#090608"/>
      <path id="Path_307" data-name="Path 307" d="M3020.751,197.27a2.4,2.4,0,0,1-2.191,2.093,1.761,1.761,0,0,1-1.794-1.891,2.461,2.461,0,0,1,2.086-2.069A2.014,2.014,0,0,1,3020.751,197.27Z" transform="translate(-2985.904 -143.481)" fill="#0b090a"/>
      <path id="Path_308" data-name="Path 308" d="M3143.306,190.742a1.918,1.918,0,0,1-1.857-1.885,1.9,1.9,0,0,1,1.817-1.786,1.836,1.836,0,0,1,.04,3.671Z" transform="translate(-3073.694 -137.615)" fill="#0c0b0e"/>
      <path id="Path_309" data-name="Path 309" d="M3040.968,484.056a7.648,7.648,0,0,1-7.934-5.019c-.8-1.848-2.151-3.5-2.249-5.584-.19-4.046,1.069-7.432,5.554-8.853,3.633-1.151,7.038-1.066,10.282.882a10.672,10.672,0,0,1,5.5,8.09c.373,3.433-.637,7.073-4.655,8.623C3045.353,483.009,3043.375,484.23,3040.968,484.056Z" transform="translate(-2995.762 -332.498)" fill="#090709"/>
      <path id="Path_310" data-name="Path 310" d="M3021.878,59.129c-3.609.165-7.01-.422-10.438-.543a15.988,15.988,0,0,1-3.564-.718,1.738,1.738,0,0,1-1.307-2.063,1.961,1.961,0,0,1,2.347-1.425,85.006,85.006,0,0,0,10.222.894,68.2,68.2,0,0,0,6.961-.03,9.663,9.663,0,0,0,2.406-.354c1.748-.587,2.893-.144,3.248,1.2.3,1.148-.844,2.376-2.482,2.561A36.339,36.339,0,0,1,3021.878,59.129Z" transform="translate(-2978.707 -44.168)" fill="#0a0709"/>
      <path id="Path_311" data-name="Path 311" d="M3122.794,59.144c-.1-1.12.793-1.712,1.825-1.835a1.9,1.9,0,1,1-.109,3.789A1.888,1.888,0,0,1,3122.794,59.144Z" transform="translate(-3060.554 -46.244)" fill="#12090a"/>
      <path id="Path_312" data-name="Path 312" d="M3049.314,476.381a8.037,8.037,0,0,1,7.859,6.384,4.768,4.768,0,0,1-2.347,4.73c-1.824.869-3.605,1.872-5.748,1.7-1.695-.132-3.024-.632-3.641-2.46-.424-1.258-1.428-2.259-1.924-3.522a4.579,4.579,0,0,1,3.052-6.383A9.736,9.736,0,0,1,3049.314,476.381Z" transform="translate(-3004.455 -341.32)" fill="#92b70f"/>
    </g>
  </g>
</svg>
