<svg xmlns="http://www.w3.org/2000/svg" width="334" height="468" viewBox="0 0 334 468">
  <g id="c-frontend" transform="translate(0 -0.031)">
    <g id="Group_43" data-name="Group 43" transform="translate(0 0)">
      <rect id="Rectangle_12" data-name="Rectangle 12" width="334" height="468" rx="30" transform="translate(0 0.031)" fill="#a07ec4"/>
      <rect id="Rectangle_15" data-name="Rectangle 15" width="290" height="406" rx="30" transform="translate(22 31.031)" fill="#e9e5e5"/>
    </g>
    <text id="Front-end" transform="translate(71 346.031)" fill="#2f323a" font-size="44" font-family="ConcertOne-Regular, Concert One" letter-spacing="0.015em"><tspan x="0" y="0">Front-end</tspan></text>
    <g id="Group_121" data-name="Group 121" transform="translate(81.077 100.031)">
      <path id="Path_313" data-name="Path 313" d="M2357.474,90.8c9.442-.267,18.873.118,28.294.656,6.59.376,13.187.813,19.745,1.546a157.019,157.019,0,0,1,22,3.827c.927.24,1.3.63,1.141,1.585-.715,4.224-.792,8.513-1.273,12.758a183.685,183.685,0,0,0-.908,22.5c.078,8.291-.057,16.591.307,24.869.208,4.739.638,9.5,1.309,14.22.229,1.612.137,3.261.458,4.87.1.524-.365.4-.608.559-4.087,2.626-8.646,2-13.1,1.793a33.533,33.533,0,0,0-6.341.174,91.887,91.887,0,0,1-10.965.863c-3.934.091-7.795.723-11.688,1.111a62.565,62.565,0,0,1-7.087.351c-4.2-.058-8.387-.162-12.577-.576-3.86-.381-7.685-.941-11.495-1.613a77.479,77.479,0,0,0-10.228-.9c-5.627-.239-11.263-.279-16.888-.551-4.273-.207-8.536-.606-12.79-1.112-4.085-.486-8.2-.728-12.3-1.079-4.388-.375-8.727-1.119-13.076-1.782a83.251,83.251,0,0,1-12.536-3.195c-.48-.152-.866-.262-.874-.939-.047-3.877-.733-7.739-.461-11.618a157.964,157.964,0,0,0,.143-15.805c-.128-4.285.016-8.577-.312-12.857a7.508,7.508,0,0,1-.212-2.305c-.048-3.141.116-6.284-.089-9.423-.412-7.547-.338-15.106-.57-22.657-.025-.813-.121-1.626-.213-2.435-.079-.7.2-.971.9-.915a32.042,32.042,0,0,0,3.416.207q10.894-.289,21.787-.652c4.935-.162,9.865-.462,14.8-.641,7.516-.274,15.031-.333,22.548-.445a14.433,14.433,0,0,0,1.693-.219c3.089-.178,6.181-.028,9.271-.079C2351.619,90.829,2354.548,90.982,2357.474,90.8Z" transform="translate(-2274.266 -90.709)" fill="#f2cf4a"/>
      <path id="Path_314" data-name="Path 314" d="M2480.434,432.591c4.527.271,9.2.722,13.9.57.9-.029,1.125.393,1.079,1.191q-.372,6.351-.706,12.7c-.033.641-.243.749-.9.747-4.162-.017-8.327-.114-12.484.181-1.016.072-2.027.287-3.042.3-3.674.046-7.327.471-10.991.671a90.91,90.91,0,0,1-10.135.306c-3.148-.18-6.291-.161-9.435-.107-6.935.118-13.85.858-20.8.72-1.962-.039-3.926,0-5.888-.022-.406,0-1.011.172-.967-.568.215-3.6-.683-7.1-.957-10.651-.019-.244.014-.493-.016-.735-.076-.631.2-.766.815-.878,3.027-.55,6.016-1.353,9.06-1.754,2.9-.382,5.746-1.021,8.7-1.183a80.412,80.412,0,0,1,11.788.726,79.994,79.994,0,0,0,11.965.21,41.463,41.463,0,0,0,8.35-.894A45.891,45.891,0,0,1,2480.434,432.591Z" transform="translate(-2376.234 -331.431)" fill="#92b70f"/>
      <path id="Path_315" data-name="Path 315" d="M2496.874,389.109c1.206-.4,2.235.044,3.269.025,5.507-.107,10.85,1.093,16.25,1.9a51.083,51.083,0,0,0,6.2.6c.786.02,1.126.149,1.3,1.1.61,3.321.7,6.73,1.671,9.985.141.47.047.668-.431.763-1.317.263-2.617.672-3.946.812a79.636,79.636,0,0,1-18.067.238c-2.054-.25-4.132-.457-6.207-.573-.856-.048-1.06-.4-.882-1.162.853-3.648,1.22-7.38,1.9-11.057A2.629,2.629,0,0,0,2496.874,389.109Z" transform="translate(-2430.373 -300.696)" fill="#7679eb"/>
      <path id="Path_316" data-name="Path 316" d="M2512.516,90.845a3.209,3.209,0,0,1-.7.158q-8.68.011-17.358,0c.192-.314.509-.211.776-.211Q2503.877,90.813,2512.516,90.845Z" transform="translate(-2429.308 -90.759)" fill="#6f6120"/>
      <path id="Path_317" data-name="Path 317" d="M2276.841,185.355a32.929,32.929,0,0,1,.2,5.315c.056,2.138.069,4.277.1,6.414-.5-.1-.316-.507-.316-.784C2276.821,192.651,2276.833,189,2276.841,185.355Z" transform="translate(-2276.045 -157.35)" fill="#786b24"/>
      <path id="Path_318" data-name="Path 318" d="M2362.718,135.586a126.928,126.928,0,0,1,13.1.394,19.875,19.875,0,0,0,4.269-.218,42.243,42.243,0,0,1,7.442.21c2.037.136,4.078.22,6.119.3,4.406.176,8.817.249,13.216.525,5.367.338,10.731.711,16.1,1.016q5.669.323,11.32.955a38.619,38.619,0,0,0,4.62.254c1.084-.01,1.535.528,1.6,1.542a123.936,123.936,0,0,1,.455,15.286c-.51,9.192.056,18.39-.286,27.579a74.154,74.154,0,0,0,.083,8.812c.113,1.374.308,2.741.5,4.106a1.149,1.149,0,0,1-.968,1.5,40.573,40.573,0,0,0-4.529,1.386c-1.342.507-2.758.02-4.132-.079-1.589-.115-3.168-.031-4.748-.044a113.407,113.407,0,0,1-11.46-.607c-2.626-.288-5.285-.459-7.935-.555-4.243-.154-8.42-.9-12.634-1.309-3.164-.309-6.34-.5-9.493-.895-4.4-.548-8.831-.771-13.245-1.155a43.909,43.909,0,0,0-7.711.065c-1.421.127-2.859.081-4.289.1-6.049.092-12.1,0-18.133-.369a98.581,98.581,0,0,1-10.171-1.23c-1.567-.26-3.146-.472-4.727-.61-2.551-.222-3.2-.963-3.674-3.461-1.039-5.475-1.2-11-1.515-16.544-.389-6.749-.885-13.5-1.31-20.248a69.7,69.7,0,0,0-1.749-12.071c-.365-1.506-.27-1.5,1.246-1.7,4.562-.6,9.168-.654,13.733-1.206a32.981,32.981,0,0,1,4.153-.207,81.928,81.928,0,0,0,12.528-1.089,79.014,79.014,0,0,1,10.751-.443C2361.737,135.583,2362.228,135.587,2362.718,135.586Z" transform="translate(-2305.522 -122.307)" fill="#29b4e9"/>
      <path id="Path_319" data-name="Path 319" d="M2365.5,167.726a24.279,24.279,0,0,1-.133,3.5c-.183,1.043-.7,1.755-1.756,1.84a1.8,1.8,0,0,1-1.929-1.674,26.027,26.027,0,0,1-.177-6.937c.04-.606.1-1.215.116-1.824a3.125,3.125,0,0,1,3.423-3.222c1.96.285,3.883-.3,5.826-.457a2.01,2.01,0,0,1,2.3,1.758,2.1,2.1,0,0,1-1.958,2.161c-1.651.235-3.3.492-4.957.666-.6.063-.763.334-.76.854C2365.507,165.411,2365.5,166.427,2365.5,167.726Z" transform="translate(-2335.593 -138.757)" fill="#080506"/>
      <path id="Path_320" data-name="Path 320" d="M2627.86,220.637q0,1.591,0,3.182a1.9,1.9,0,0,1-1.605,2.085c-1.125.2-1.682-.615-2.046-1.53a6.033,6.033,0,0,1-.29-3.091,40.058,40.058,0,0,0,.01-4.643c.013-1.7,1.24-2.626,2.62-2.01a1.973,1.973,0,0,1,1.13,1.493A22,22,0,0,1,2627.86,220.637Z" transform="translate(-2520.406 -177.829)" fill="#080506"/>
      <path id="Path_321" data-name="Path 321" d="M2606.7,279.645a12.249,12.249,0,0,1-3.259-.484,2.063,2.063,0,0,1-1.525-2.209,2.276,2.276,0,0,1,2.508-1.553,9.293,9.293,0,0,0,5.391-.483,2.081,2.081,0,0,1,2.825.955,2.131,2.131,0,0,1-1.24,2.621A11.241,11.241,0,0,1,2606.7,279.645Z" transform="translate(-2504.946 -220.259)" fill="#080506"/>
      <path id="Path_322" data-name="Path 322" d="M2669.457,187.266a1.919,1.919,0,0,1-1.8,1.783,1.972,1.972,0,0,1-1.845-1.78,1.826,1.826,0,1,1,3.649,0Z" transform="translate(-2549.954 -157.367)" fill="#080506"/>
      <path id="Path_323" data-name="Path 323" d="M2588.44,194.563a1.832,1.832,0,0,1,1.8,1.894,1.966,1.966,0,0,1-1.986,1.71,1.818,1.818,0,0,1,.185-3.6Z" transform="translate(-2494.291 -163.833)" fill="#080506"/>
    </g>
  </g>
</svg>
