<svg xmlns="http://www.w3.org/2000/svg" width="334" height="468" viewBox="0 0 334 468">
  <g id="c-others" transform="translate(-0.198 -0.031)">
    <rect id="Rectangle_16" data-name="Rectangle 16" width="334" height="468" rx="30" transform="translate(0.198 0.031)" fill="#a07ec4"/>
    <rect id="Rectangle_17" data-name="Rectangle 17" width="290" height="406" rx="30" transform="translate(22.198 31.031)" fill="#e9e5e5"/>
    <text id="Others" transform="translate(104.198 345.031)" fill="#2f323a" font-size="44" font-family="ConcertOne-Regular, Concert One" letter-spacing="0.015em"><tspan x="0" y="0">Others</tspan></text>
    <g id="Group_122" data-name="Group 122" transform="translate(94.416 65.031)">
      <path id="Path_324" data-name="Path 324" d="M3530.741-27.787c.041-.617.047-1.479.164-2.327a15.151,15.151,0,0,0-.269-6.549c-.729-2.423-.125-4.865.06-7.3a25.445,25.445,0,0,0,.267-3.78c-.19-2.523.833-4.615,2.049-6.663a1.968,1.968,0,0,1,2.592-.988,1.845,1.845,0,0,1,.922,2.673c-1.76,2.633-1.437,5.613-1.781,8.493-.368,3.087-.633,6.152.345,9.2a7.226,7.226,0,0,1,.056,3.047,32.988,32.988,0,0,0-.327,6.226c.1,1.525-.678,2.478-1.879,2.528-1.169.049-1.993-.881-2.087-2.368C3530.813-26.24,3530.787-26.894,3530.741-27.787Z" transform="translate(-3459.792 59.572)" fill="#080606"/>
      <path id="Path_325" data-name="Path 325" d="M3703.674-5.862a1.946,1.946,0,0,1-.716,1.5,7.25,7.25,0,0,0-1.778,3.007,33.66,33.66,0,0,1-2.033,4.316,50.433,50.433,0,0,0-4.2,11.988,13.563,13.563,0,0,1-2.037,4.553c-.829,1.218-2.06,1.565-3.047.917-.962-.631-1.134-1.8-.333-3.035a13.3,13.3,0,0,0,1.692-4.167,57.188,57.188,0,0,1,5.03-13.506,18.95,18.95,0,0,0,1.511-3.475,7.3,7.3,0,0,1,2.743-3.666,1.912,1.912,0,0,1,2.195-.169A1.913,1.913,0,0,1,3703.674-5.862Z" transform="translate(-3571.561 25.98)" fill="#080606"/>
      <path id="Path_326" data-name="Path 326" d="M3330.894,10.362a2.062,2.062,0,0,1,2.123,1.282,38.575,38.575,0,0,1,2.728,8.463,6.387,6.387,0,0,0,.607,1.98c1.68,2.794,3.154,5.742,5.448,8.111a11.465,11.465,0,0,1,2.626,4.642,1.933,1.933,0,0,1-1.025,2.475,1.793,1.793,0,0,1-2.509-.847c-1.582-3.736-4.6-6.479-6.669-9.895-1.768-2.924-2.471-6.1-3.342-9.267a7.6,7.6,0,0,0-1-2.475,4.059,4.059,0,0,1-.664-2.327A1.942,1.942,0,0,1,3330.894,10.362Z" transform="translate(-3318.219 13.148)" fill="#080606"/>
      <path id="Path_327" data-name="Path 327" d="M3403.308,246.782c1.85-1.457,1.585-3.392,1.366-5.246a35.037,35.037,0,0,1-.242-4.255c.016-4.875-1.627-8.991-5.757-11.878a2.175,2.175,0,0,1-.4-.275c-3.158-3.532-7.3-5.962-10.523-9.437-2.6-2.8-5.459-5.375-8.195-8.057a6.454,6.454,0,0,1-1.894-3.481,10.067,10.067,0,0,0-1.861-4.348,6.473,6.473,0,0,1-1.13-2.674c-.636-2.859-1.5-5.674-2.012-8.553a32.169,32.169,0,0,1-.434-8.028,52.936,52.936,0,0,1,1.206-8.085,29.579,29.579,0,0,1,5.625-11.3c1.743-2.27,3.127-4.765,4.875-7.028a29.3,29.3,0,0,1,6.848-6.748c3.974-2.638,7.956-5.265,12.168-7.527a43.377,43.377,0,0,1,14.758-4.969c6.1-.823,12.236-1.411,18.4-.413,2.69.436,5.454.533,8.091,1.169a62.816,62.816,0,0,1,12.222,4.553c6.334,3.017,11.809,7.26,17.224,11.585,3.344,2.67,5.6,6.34,8.054,9.8.331.465.685.913,1.031,1.368,4.909,6.446,6.755,13.841,6.379,21.784a25.173,25.173,0,0,1-2.625,9.482c-1.463,3.1-2.5,6.368-3.763,9.549-.908,2.292-2.594,4.022-4.216,5.8a20.9,20.9,0,0,1-3.305,3.09,55.969,55.969,0,0,0-8.169,7.724,33.95,33.95,0,0,1-6.425,5.245,48.348,48.348,0,0,1-4.729,2.267,7.908,7.908,0,0,0-4.643,7.916c.053,1.737-.385,3.381-.424,5.08-.009.365-.1.728-.116,1.093-.043.845.076,1.636-1.124,1.98a1.633,1.633,0,0,0-1.026,2.018c.326,1.047-.315,1.309-1,1.606a29.065,29.065,0,0,1-7.22,1.784c-3.469.53-6.912.1-10.372-.149a29.761,29.761,0,0,0-6.233.095,8.159,8.159,0,0,1-2.442-.012c-2.581-.436-5.192-.449-7.786-.678A51,51,0,0,1,3403.308,246.782Z" transform="translate(-3359.442 -77.875)" fill="#f2cf4a"/>
      <path id="Path_328" data-name="Path 328" d="M3524.256,509.155a7.759,7.759,0,0,1-2.712,5.967c-.767.767-1.424,1.647-2.246,2.376-3.339,2.964-7.469,4.516-11.487,6.161a19.186,19.186,0,0,1-6.708,1.171c-1.874.048-3.749.118-5.617.172a58.994,58.994,0,0,1-7.4-.5c-1.452-.142-2.905-.453-4.344-.559-3.567-.263-4.958-2.307-5.481-5.2-.535-2.96-1.573-5.82-1.752-8.847-.01-.161-.076-.318-.1-.48-.347-2.861-.08-3,2.7-2.476a55.788,55.788,0,0,0,9.408,1.287c1.907.032,3.812.314,5.712.534a28.891,28.891,0,0,0,4.036.056c3.839-.091,7.659.243,11.488.444a31.129,31.129,0,0,0,5.462-.486,26.2,26.2,0,0,0,7.6-2c.769-.348,1.276-.055,1.361.809C3524.23,508.157,3524.235,508.73,3524.256,509.155Z" transform="translate(-3432.773 -340.283)" fill="#29b4e9"/>
      <path id="Path_329" data-name="Path 329" d="M3526.893,324.362c4.316.025,7.707-1.639,10.864-3.958.47-.346.336-.559.01-.839A18.324,18.324,0,0,1,3536,317.88a7.962,7.962,0,0,1-1.088-10.029,18.2,18.2,0,0,1,6.022-6.639,6.83,6.83,0,0,1,10.718,4.731,11.832,11.832,0,0,1-2.487,9.406,19.612,19.612,0,0,1-3.644,3.91c-.539.41-.422.723.143.936,1.976.748,3.827,1.816,5.946,2.2,1.675.3,2.6,1.329,2.354,2.438-.274,1.226-1.329,1.757-3.014,1.453a32.386,32.386,0,0,1-8.286-3.234,1.621,1.621,0,0,0-1.876.069c-2.477,1.63-4.882,3.384-7.783,4.278-4.2,1.293-8.316,1.532-12.352-.529a.992.992,0,0,0-1.387.362,10.39,10.39,0,0,1-3.305,2.473,1.734,1.734,0,0,1-2.409-.494,1.762,1.762,0,0,1,.214-2.538c.682-.636,1.447-1.182,2.18-1.762.632-.5.838-.939.241-1.721a17.5,17.5,0,0,1-2.949-5.877c-1.164-4.157.2-8.27,4.576-10.079a4.818,4.818,0,0,1,6.1,2.2c1.961,3.429,1.428,6.814-.326,10.135a23.048,23.048,0,0,1-1.5,2.522c-.521.739-.192,1.071.456,1.361A9.754,9.754,0,0,0,3526.893,324.362Z" transform="translate(-3458.51 -194.778)" fill="#080606"/>
      <path id="Path_330" data-name="Path 330" d="M3562.724,256.373c-.079.519.218,1.246-.193,1.873a2.067,2.067,0,0,1-1.923,1.075,1.649,1.649,0,0,1-1.638-1.414c-.151-2.391-.994-4.714-.71-7.136.162-1.382.861-2.067,1.984-2.042a2.027,2.027,0,0,1,1.919,2.029C3562.131,252.614,3562.812,254.372,3562.724,256.373Z" transform="translate(-3490.448 -158.688)" fill="#080606"/>
      <path id="Path_331" data-name="Path 331" d="M3617.4,219.782c.119,1.016-1.289,2.016-2.083,1.955a2.078,2.078,0,0,1-1.844-2.026,2.229,2.229,0,0,1,2.189-2.024A1.911,1.911,0,0,1,3617.4,219.782Z" transform="translate(-3529.359 -136.829)" fill="#080606"/>
      <path id="Path_332" data-name="Path 332" d="M3509.037,214.187a1.8,1.8,0,0,1,1.83,1.872,1.776,1.776,0,0,1-1.793,1.754,1.8,1.8,0,0,1-1.83-1.854A1.826,1.826,0,0,1,3509.037,214.187Z" transform="translate(-3454.568 -134.367)" fill="#080606"/>
      <path id="Path_333" data-name="Path 333" d="M3606.771,317.168c.094,3.084-1.575,5.178-3.436,7.171-.5.535-1.054,1.021-1.6,1.515-1.234,1.124-1.277,1.161-2.512-.015-1.285-1.224-2.745-2.384-2.577-4.471a7.208,7.208,0,0,1,1.479-3.429,15.139,15.139,0,0,1,2.831-3.189c1.2-1,2.458-1.892,4.089-1.169C3606.646,314.29,3606.835,315.764,3606.771,317.168Z" transform="translate(-3517.51 -204.166)" fill="#f3cf4b"/>
      <path id="Path_334" data-name="Path 334" d="M3528.227,345.63c-1.088-2.179-2.445-4.051-1.7-6.486.036-.116.034-.245.077-.357.451-1.167,1.865-2.386,2.585-2.114,1.254.475,1.273,1.614,1.365,2.747C3530.746,341.787,3529.63,343.631,3528.227,345.63Z" transform="translate(-3467.995 -220.584)" fill="#f1ce53"/>
    </g>
  </g>
</svg>
