<svg xmlns="http://www.w3.org/2000/svg" width="277.761" height="247.342" viewBox="0 0 277.761 247.342">
  <g id="loveboat" transform="translate(-574.702 -1012.13) rotate(31)">
    <path id="Path_48" data-name="Path 48" d="M-1507.129,1106.839c-3.612-.305-9.551-.842-15.5-1.3a89.135,89.135,0,0,1-17.807-3c-7.343-2.108-14.688-4.25-21.892-6.736-8.532-2.944-15.772-8.015-22.972-13.1a57.749,57.749,0,0,1-17.85-20.287c-2.831-5.3-6.451-10.234-8.476-15.919a56.788,56.788,0,0,1-2.748-14.214c-.391-4.428-.884-8.861-.959-13.3a55.73,55.73,0,0,1,4.654-23.917c2.308-5.174,6.477-8.738,11.917-10.894a120.5,120.5,0,0,1,26.005-7.181,97.777,97.777,0,0,0,27.776-8.742c5.931-2.873,11.265-6.842,16.823-10.379a143.593,143.593,0,0,0,16.446-12.076c1.676-1.438,3.155-3.076,4.775-4.574q4.5-4.163,9.068-8.265c4.379-3.952,8.915-7.762,13.125-11.866a140.083,140.083,0,0,1,14.149-11.566c8.265-6.182,16.489-12.414,24.855-18.474,3.023-2.189,6.393-3.959,9.631-5.88a1.46,1.46,0,0,0,.9-1.664,3.592,3.592,0,0,1,.857-2.369c1.719-2.108,4.285-2.647,6.924-2.863,4.7-.385,9.408-.881,14.122-1.013a58.406,58.406,0,0,1,17.622,2.34c6.366,1.807,12.824,3.384,18.435,6.985,4.105,2.634,7.949,5.528,10.749,9.418,1.391,1.933,2.338,4.142,3.6,6.166a37.359,37.359,0,0,1,5.4,12.339c1.127,5.648,2.682,11.241,3.443,16.929a119.61,119.61,0,0,1,.733,25.446c-.376,4.7-.513,9.43-1.281,14.071a180.131,180.131,0,0,1-3.819,17.668c-3.723,13.756-10.123,26.489-17.537,38.791-3.119,5.176-6.182,10.4-9.653,15.367a114.789,114.789,0,0,1-31.168,30.053c-7.935,5.247-15.833,10.544-23.814,15.731a103.036,103.036,0,0,1-23.963,11.958c-5.095,1.669-10.432,2.719-15.7,3.885C-1488.308,1106.189-1496.53,1106.611-1507.129,1106.839Z" transform="matrix(0.891, -0.454, 0.454, 0.891, 2068.646, -951.652)" fill="#f5fdc6"/>
    <g id="Group_24" data-name="Group 24" transform="matrix(0.951, -0.309, 0.309, 0.951, 1016.479, -2137.733)">
      <path id="Path_41" data-name="Path 41" d="M126.54,69.525c3.472,2.769,7.3,4.562,9.95,7.869,9.121,11.389,12.522,24.05,8.9,38.422a112.16,112.16,0,0,1-3.671,13.021c-3.473,9.038-9.377,16.34-16.615,22.5-5.619,4.782-12.7,6.032-19.864,6.346-11.032.483-21.062-2.822-30.8-7.837a152.856,152.856,0,0,1-32.007-21.667,147.4,147.4,0,0,1-23.686-27.326C14.627,94.793,10.55,88.7,6.41,82.643a3.42,3.42,0,0,0-1.9-1.633c-3.27-1-4.573-3.238-4.506-6.667.095-4.906,2.016-9.228,4-13.54C8.7,50.626,13.8,40.728,21.1,32.056A78.134,78.134,0,0,1,55.58,8.487c10.877-3.851,22-6.9,33.491-7.99,12-1.139,23.981-.493,35.4,3.751,15.456,5.743,22.872,20.5,21.952,32.948-.992,13.416-6.816,24.376-18.671,31.568C127.419,68.968,127.088,69.181,126.54,69.525Z" transform="translate(-774.701 2716.397) rotate(-93)" fill="#a07ec4"/>
      <path id="Path_42" data-name="Path 42" d="M0,5.786C-.045,2.866,1.237.957,3.4.267A4.693,4.693,0,0,1,8.884,2.144,6.542,6.542,0,0,1,10,4.247a47.665,47.665,0,0,0,3.851,9.028c1.623,3.035.941,5.869-1.55,7.339-2.373,1.4-5.193.648-7.036-2.121A36.134,36.134,0,0,1,0,5.786Z" transform="translate(-715.312 2676.448) rotate(-93)" fill="#302a28"/>
      <path id="Path_43" data-name="Path 43" d="M7.36,0c2.006.208,4.161.352,6.291.673,3.287.495,5.3,2.8,5.042,5.619-.263,2.89-2.536,4.61-6.012,4.426-2.311-.122-4.614-.386-6.92-.591C1.98,9.794-.108,7.837,0,4.741.115,1.7,2.432-.06,6.258,0,6.577.007,6.9,0,7.36,0Z" transform="translate(-713.789 2650.975) rotate(-93)" fill="#302a28"/>
      <path id="Path_44" data-name="Path 44" d="M0,4.943A4.774,4.774,0,0,1,4.782,0a4.964,4.964,0,0,1,4.8,4.756A4.9,4.9,0,0,1,4.729,9.669,4.709,4.709,0,0,1,0,4.943Z" transform="translate(-688.023 2625.522) rotate(-93)" fill="#302a28"/>
      <path id="Path_45" data-name="Path 45" d="M4.949,9.554A4.746,4.746,0,0,1,0,4.783,4.963,4.963,0,0,1,4.759,0,4.889,4.889,0,0,1,9.666,4.845,4.676,4.676,0,0,1,4.949,9.554Z" transform="translate(-741.235 2627.617) rotate(-93)" fill="#302a28"/>
    </g>
  </g>
</svg>
