<svg xmlns="http://www.w3.org/2000/svg" width="1365.999" height="169.491" viewBox="0 0 1365.999 169.491">
  <g id="mountain_contact" transform="translate(0.035 -2302)">
    <path id="Path_291" data-name="Path 291" d="M4046,3422H5411.964s-68.114,9.446-171.317,51.812-97.011,115.587-241.5,117.651S4789.135,3481,4749.4,3473.812s-224.982,78.435-332.313,12.385-278.315,21.673-371.087,28.9C4045.921,3516.138,4046,3422,4046,3422Z" transform="translate(-4046 -1120)" fill="#ececec"/>
    <path id="Path_293" data-name="Path 293" d="M606.575,162.039c-4.75-42.449,52.3-148,76.063-140.734s38.017,134.611,19,169.794S611.325,204.488,606.575,162.039Z" transform="translate(870.64 3069.142) rotate(-98)" fill="#5e5d7f" opacity="0.18"/>
    <path id="Path_294" data-name="Path 294" d="M441.49,46.05c15-9.068-66.75-39.892-109-41.1s-87.25,26-60,36.27S426.49,55.118,441.49,46.05Z" transform="translate(115.89 2314)" fill="#5e5d7f" opacity="0.18"/>
    <path id="Path_295" data-name="Path 295" d="M846.591,52.031c-24.127-7.5-36.84-42.813-16.951-47.081s92.268,18.239,96.506,30.009S870.718,59.534,846.591,52.031Z" transform="translate(284.726 2524.092) rotate(-14)" fill="#5e5d7f" opacity="0.18"/>
  </g>
</svg>
