<svg xmlns="http://www.w3.org/2000/svg" width="621.963" height="474.356" viewBox="0 0 621.963 474.356">
  <g id="pat" transform="translate(55.027 -0.444)" opacity="0.1">
    <path id="Path_335" data-name="Path 335" d="M514.45,148.68c-1.375,1.284-2.685,2.071-3.906,3.227a42.235,42.235,0,0,1,3.08-3.716A70.428,70.428,0,0,1,530,135.575c-1.385.7-2.836,1.3-4.182,2.1s-2.728,1.55-4.063,2.38c2.469-1.693,5.163-3.39,7.578-4.742,1.381-.874,2.743-1.592,4.088-2.3l2-1.084c.67-.357,1.377-.637,2.078-.96-.738.228-1.493.406-2.213.666l-2.164.79-2.184.821c-.731.286-1.43.662-2.158,1.011a65.617,65.617,0,0,0-13.486,8.709,67.128,67.128,0,0,0-12.5,13.35,73.082,73.082,0,0,0-8.445,16.039c-1.263,3.172-1.857,6.264-2.832,9.266a57,57,0,0,1-4.923,5.937l.116-.145a22.324,22.324,0,0,1-6,6.878,14.4,14.4,0,0,1-7.658,2.667,36.072,36.072,0,0,1-9.635-1.152c-3.5-.77-7.21-1.793-11.354-2.458a31.9,31.9,0,0,0-12.747.24,32.493,32.493,0,0,0-3.331,1.1,25.026,25.026,0,0,0-3.12,1.572,23.567,23.567,0,0,0-5.437,4.512,28.291,28.291,0,0,0-3.784,5.62,40.332,40.332,0,0,0-2.324,5.8,84.305,84.305,0,0,0-2.494,11.036,151.256,151.256,0,0,1-3.23,16.11c-1.371,4.831-3.3,8.847-5.943,11.368-2.617,2.571-5.913,3.89-10.344,4.225-4.4.343-9.533-.316-14.914-1.193-5.41-.856-11.083-1.992-17.33-2.47a54.712,54.712,0,0,0-9.824.067,34.389,34.389,0,0,0-10.477,2.73,29.406,29.406,0,0,0-7.974,5.215,31.411,31.411,0,0,0-5.844,7.335,49.927,49.927,0,0,0-5.454,15.713c-.991,5.04-1.53,9.8-2.227,14.28a59.358,59.358,0,0,1-2.845,12.1c-2.657,6.927-7.225,10.224-14.578,10.54a58.438,58.438,0,0,1-12.357-1.194c-4.453-.783-9.189-1.794-14.29-2.459a48.813,48.813,0,0,0-16.75.35,30.322,30.322,0,0,0-8.76,3.392,30.792,30.792,0,0,0-7.322,5.929,47.405,47.405,0,0,0-8.556,14.487c-1.922,4.793-3.32,9.384-4.835,13.606a51.784,51.784,0,0,1-5.106,11.091,16.166,16.166,0,0,1-7.158,6.26,27.47,27.47,0,0,1-10.732,1.642c-4.181-.02-8.781-.495-13.76-.757-5.3-.27-11.261-.347-17.559,1.421-.782.233-1.564.436-2.34.708L176,374.7a29.339,29.339,0,0,0-4.4,2.41,13.907,13.907,0,0,0-2.025,1.453l-1.928,1.574c-1.208,1.1-2.285,2.3-3.38,3.474a61.838,61.838,0,0,0-8.78,14.97c-2.153,4.89-3.924,9.56-5.9,13.76a41.47,41.47,0,0,1-6.706,10.676A27.839,27.839,0,0,1,133.2,429.6a59.414,59.414,0,0,1-12.824,3.65c-4.63.87-9.51,1.488-14.562,2.176-3.6.505-7.32,1-11.468,1.94a67.21,67.21,0,0,0-11.758,3.86,53.322,53.322,0,0,0-10.717,6.05,39.025,39.025,0,0,0-8.626,8.427,35.679,35.679,0,0,0-2.331,3.71c-.613,1.25-1.089,2.485-1.523,3.6-.352,1.17-.58,2.289-.783,3.293a14.163,14.163,0,0,0-.207,2.809A9.856,9.856,0,0,0,59,473.029,2.889,2.889,0,0,0,60.16,474.7c.843.415,1.807-.505,2.809-2.344l.375-.733.492-.8q.506-.836,1.028-1.82a39.232,39.232,0,0,1,3.02-4.185c2.757-3.313,6.6-5.667,11.45-8.526a56.6,56.6,0,0,1,12.46-5.28,81.2,81.2,0,0,1,13.937-2.638c9.82-1.253,20.2-2.02,30.525-5.363a44.254,44.254,0,0,0,10.5-4.975,40.366,40.366,0,0,0,9.138-8.408,61.654,61.654,0,0,0,6.286-10.2c1.705-3.449,3.144-6.833,4.557-10.082,2.618-6.05,5.226-11.759,8.635-15.72a11.94,11.94,0,0,1,1.31-1.383,8.8,8.8,0,0,1,1.361-1.232l1.412-1.087c.52-.275,1.03-.557,1.53-.851a19.856,19.856,0,0,1,6.95-2.01,54.045,54.045,0,0,1,8.631-.07l9.89.8a78.073,78.073,0,0,0,11.23.089,36.143,36.143,0,0,0,12.44-3.227,28.881,28.881,0,0,0,9.05-6.585,39.076,39.076,0,0,0,6.01-8.55c3.064-5.862,4.747-11.561,6.467-16.8,1.687-5.225,3.318-10.13,5.572-13.914,2.242-3.807,4.945-6.328,8.562-7.644,4.4-1.716,10.512-1.152,16.918-.135,4.93.762,10.14,1.887,15.807,2.587a60.429,60.429,0,0,0,8.926.495,35.578,35.578,0,0,0,9.693-1.531,28.494,28.494,0,0,0,9.19-4.843A28.933,28.933,0,0,0,333.111,320c3.474-5.785,4.833-11.76,5.826-17.248.962-5.524,1.467-10.77,2.28-15.67.8-4.88,1.9-9.442,3.818-12.987a16.024,16.024,0,0,1,8.18-7.516c3.548-1.436,8.02-1.737,12.786-1.425,7.316.473,15.144,2.348,23.686,3.228a51.519,51.519,0,0,0,13.575-.17,28.09,28.09,0,0,0,13.611-6.053,25.734,25.734,0,0,0,5.01-5.484,30.866,30.866,0,0,0,3.335-6.252,56.291,56.291,0,0,0,3.23-12.524c1.247-8.066,1.518-15.825,3.32-22.507a19.225,19.225,0,0,1,4.183-8.267,11.766,11.766,0,0,1,3.42-2.576,4.61,4.61,0,0,1,1-.451l1.016-.4c.706-.21,1.44-.368,2.183-.525a31.727,31.727,0,0,1,10.218.57c3.68.661,7.532,1.642,11.718,2.222a38.355,38.355,0,0,0,8.272.331,25.4,25.4,0,0,0,8.49-2.3,26.235,26.235,0,0,0,7-5.209,37.916,37.916,0,0,0,4.906-6.656c5.34-9.262,7.562-19.119,12.285-27.06,9.365-16.212,26.633-27.81,45.228-30.828a78.114,78.114,0,0,1,14.12-1.246,48.687,48.687,0,0,0-11.17-2.145,23.885,23.885,0,0,0-3.092.174l-3.931.672c1.427-.271,2.9-.58,4.357-.806q2.113-.227,4.215-.543c1.856-.22,3.644-.33,5.416-.526,1.77-.06,3.53-.08,5.335-.11a64.273,64.273,0,0,0-23.083.024c-.29.067-1.852.845-3.172,1.372-.907.393-1.9.794-2.922,1.2l-1.54.607-1.482.714c-1.465.945-2.949,1.772-4.372,2.855-1.439,1.046-2.985,2.018-4.544,3.26-.795.6-1.627,1.2-2.51,1.818-.848.665-1.738,1.359-2.675,2.093l-1.467,1.1-1.481,1.242c-1,.877-2.163,1.67-3.238,2.7ZM350.265,260.031a26.367,26.367,0,0,1,9.944-2.117,8.519,8.519,0,0,1,1.884.236,34.6,34.6,0,0,0-9.024,1.518,24.8,24.8,0,0,0-4.83,2.137,14.748,14.748,0,0,0-1.932,1.407l-.938.758-.908.84a23.174,23.174,0,0,0-5.342,7.34,40.806,40.806,0,0,0-2.887,8.668c-.132.034-.392.142-.38.093a40.179,40.179,0,0,1,3.334-9.728,22.838,22.838,0,0,1,6.61-7.92c.4-.293.84-.58,1.287-.855l1.41-.7a4.359,4.359,0,0,1,1.772-1.675Zm80.176-54.008a16.955,16.955,0,0,1,3.912-3.864,25.572,25.572,0,0,0-3.434,4.406c-3.047,4.47-4.276,9.915-5.191,15.25-.9,5.375-1.427,10.829-2.451,16.226-1.028,5.363-2.538,10.823-5.76,15.4a21.974,21.974,0,0,1-13.656,8.86,41.578,41.578,0,0,1-12.038.523c-4-.337-7.96-.978-11.9-1.634-1.5-.254-2.962-.652-4.443-.977,1.52.164,3.038.27,4.56.517,3.91.628,7.833,1.271,11.78,1.612a39.56,39.56,0,0,0,11.768-.524,13.308,13.308,0,0,0,3.051-1.1,14.219,14.219,0,0,0,2.269-1.483c.605-.493-.26-.4-.448-.585a22.114,22.114,0,0,0,6.008-3.44c1.373-1.063,2.2-1.534,3.206-2.41a27.164,27.164,0,0,0,1.82-5.378c.2-.979.3-1.98.411-2.963l.559-1.166a37.8,37.8,0,0,1-1.1,4.336c1.878-2.3,2.94-5.811,3.492-9.493.584-3.692.744-7.6,1.27-11.162l-.986.24.232-1.615.756,1.529a109.914,109.914,0,0,1,1.948-10.887,30.356,30.356,0,0,1,4.361-10.22Zm31.165-4.529c-5.969-1.323-11.96-3.236-18.131-2.65a35.1,35.1,0,0,1,10.36.459c3.428.567,6.814,1.353,10.22,1.906,1.037.18,2.145.385,3.207.53A24.312,24.312,0,0,0,478.4,201.2c-3.86,1.624-8.248,1.692-11.883,1.41-2.22-.42-3.525-.8-4.907-1.112ZM324.41,320.7a28.1,28.1,0,0,0,6.208-11.734,80.494,80.494,0,0,0,2.21-11.36l.9-6.932c-.08,2.155,0,4.086-.254,6.516q-.313,2.99-.858,5.948a56.912,56.912,0,0,1-1.741,7.148A27.977,27.977,0,0,1,324.41,320.7Zm166.5-131.43a110.428,110.428,0,0,0,4.395-11.393,44.152,44.152,0,0,1,2.2-4.2c-1.055,3.384-2.014,6.771-3.4,10.689q-.8,1.378-1.685,2.706c-.5.8-1.011,1.5-1.513,2.2ZM263.967,320.558a29.468,29.468,0,0,1,9.512-1.437,68.77,68.77,0,0,1,13.789,2.343c-1.547-.188-3.11-.355-4.219-.46-6.45-1.243-12.686-1.932-19.082-.446Zm81.9-60.475a26.1,26.1,0,0,1,11.413-4.51,27.76,27.76,0,0,1,7.09.378,41.232,41.232,0,0,0-9.57.979,25.774,25.774,0,0,0-8.933,3.153Zm-.147-3.232a27.357,27.357,0,0,0-7.507,6.07,31.687,31.687,0,0,0-4.95,7.934q-.456,1.05-.981,2.1l-.934,2.117a42.885,42.885,0,0,1,2.407-6.27,30.946,30.946,0,0,1,3.562-5.652,26.755,26.755,0,0,1,8.4-6.3ZM268.64,321.97a20.994,20.994,0,0,1,4.028-.56,72.862,72.862,0,0,1,14.34,1.914c-2.6-.39-5.216-.8-8.886-1.082a43.851,43.851,0,0,0-9.482-.272Zm116.948-63.449c2.574.27,5.174.347,7.582.531a56.811,56.811,0,0,0,7.763.307,39.684,39.684,0,0,1-7.2.536c-2.957-.348-5.54-.832-8.145-1.374Zm86.162-60.8,1.122-.1,1.055-.22c.346-.077.7-.115,1.034-.2.324-.1.644-.2.968-.274A15.744,15.744,0,0,0,482,193.939a14.576,14.576,0,0,1-4.7,3.15,6.017,6.017,0,0,1-1.289.318,13.194,13.194,0,0,1-1.346.236,19.318,19.318,0,0,1-2.917.08Zm-58.41,49.806c.229-.675.43-1.536.636-2.024a52.441,52.441,0,0,0,3.66-12.008c-.29,2.23-.562,4.459-1.285,7.72a30.525,30.525,0,0,1-3.01,6.312ZM331.506,284.7c-.258,1.4-.719,2.66-1.064,3.979.234-2.288.453-4.572.917-6.974a39.513,39.513,0,0,1,2.223-6.574,51.409,51.409,0,0,0-1.4,5.83l-.676,3.74ZM352.022,254.1a32.23,32.23,0,0,1,6.917-1.326,41.162,41.162,0,0,1,6.434.229,51.972,51.972,0,0,0-6.918.307,35.648,35.648,0,0,0-6.433.79Zm151.3-94.862c.583-1.14,1.316-2.156,1.978-3.247a23.927,23.927,0,0,1,2.272-3.181,26.047,26.047,0,0,1,3.466-3.22c-1.132,1.275-2.054,2.736-3.246,4.313-.93.888-1.614,1.865-2.373,2.724-.711.894-1.49,1.69-2.1,2.611ZM173.117,381.994a35.645,35.645,0,0,0-3.667,2.794c-.556.5-1.107.985-1.66,1.476-.51.52-.987,1.066-1.487,1.613.5-.655.935-1.386,1.5-2.023q.8-.922,1.67-1.788a27.177,27.177,0,0,1,10.5-6.076l-2.675,1.289a14.7,14.7,0,0,0-1.889,1.171c-1.034.729-1.8,1.13-2.292,1.544Zm233.54-124.42a11.2,11.2,0,0,0,1.5-.93c.5-.294.928-.67,1.382-.95.514-.289.981-.6,1.463-.9l.734-.435.679-.514-.544.663-.635.626-.688.685-.834.671a10.042,10.042,0,0,1-1.589.64,9.426,9.426,0,0,1-1.464.445Zm-78.765,33.74c.285-1.98.678-3.973,1.093-6.012-.12,1.225-.134,2.369-.3,3.63-.287,2.228-.624,4.476-.947,6.655l-.282.217c.147-1.474.222-2.982.44-4.49Zm2.817-8.416a19.186,19.186,0,0,1-.7,2.107c.32-2.1.66-4.215,1.212-6.378a26.152,26.152,0,0,1,1.342-3.446,71.468,71.468,0,0,0-1.856,7.717ZM210.956,380.534c-1.65.036-3.382.088-4.927-.038-1.41-.12-2.622-.41-3.916-.634,1.728.081,3.457.192,5.95.266C208.8,380.226,209.872,380.424,210.956,380.534ZM420.043,236.388a51.3,51.3,0,0,1-2.028,8.9,16.907,16.907,0,0,1-1.372,2.848,28.671,28.671,0,0,0,1.013-2.892,53.089,53.089,0,0,0,2.387-8.858Zm-46.237,17.474a28.56,28.56,0,0,1,2.887.183c1.674.274,3.282.653,4.884.985l-4.143-.476C376.347,254.345,375.077,254.1,373.806,253.862ZM186.522,380.089a23.913,23.913,0,0,0-3.323.829l-1.627.525c-.546.168-1.046.46-1.576.679-.757.344-1.726.533-2.52.985a13.466,13.466,0,0,1,2.327-1.33l1.269-.64c.457-.167.926-.337,1.414-.513a25.54,25.54,0,0,1,4.036-.535ZM424.853,217.9c-.194.95-.569,1.752-.824,2.626.223-1.529.476-3.062.834-4.6a34.419,34.419,0,0,1,2.014-5.574,55.5,55.5,0,0,0-2.024,7.543Zm10.234-21.435a22.7,22.7,0,0,0-5.438,3.6,6.431,6.431,0,0,1,1.032-1.122,21.465,21.465,0,0,1,3.366-2.332c.7-.34,1.43-.772,2.334-1.123.914-.315,1.93-.753,3.113-1.045a28.792,28.792,0,0,0-4.407,2.02Zm-14.744,26.717c-.127.7-.279,1.3-.421,1.939.138-1.2.283-2.425.473-3.645.079-.466.258-.92.546-1.9l-.6,3.61Zm70.126-35.793a13.929,13.929,0,0,1-.752,1.872,11.59,11.59,0,0,1-1.475,1.538c-.142.069.486-1.03.925-2.23.591-.557,1.132-1.2,1.3-1.18Zm15.047-29.145a14.906,14.906,0,0,1-1.459,1.583,4.7,4.7,0,0,1,.84-1.71,27.7,27.7,0,0,1,1.9-2.025c-.53.9-.962,1.761-1.28,2.152Zm-95.6,93.985a6.381,6.381,0,0,1-1.267.593c.47-.448.971-.91,1.371-1.328a3.1,3.1,0,0,1,.568-.4c.194-.147.406-.3.675-.506a9.536,9.536,0,0,1-1.347,1.641Zm-95.377,70.847a18.887,18.887,0,0,0,3.315-1.453,5.355,5.355,0,0,1-.811.658c-.544.274-1.132.448-1.709.678-.6.176-1.22.352-1.885.512.442-.135.749-.292,1.09-.395Zm19.906-47.472-.964,2.734c.262-.99.458-1.994.819-2.977a29.143,29.143,0,0,1,1.651-3.783c-.877,2.03-1.161,3.055-1.506,4.026Zm123.833-78.088c.714-.007,1.4-.018,2.175,0,.03.005,1.32.38,1.274.393a7.341,7.341,0,0,1-1.222.257C459.364,197.837,458.823,197.678,458.281,197.521ZM303.009,323.756a7.068,7.068,0,0,1-1.395-.457c.6.022,1.292.026,1.76.077.724.066,1.31.245,2.64.4a22.968,22.968,0,0,1-3.005-.022ZM398.19,257.72c.836-.12,1.7-.191,2.5-.328.371-.05.742-.079,1.115-.1l1.078-.144-1.057.306-1.14.237c-.917.075-1.727.011-2.5.03Zm-24.373-.7a3.347,3.347,0,0,1-1.244-.5,9.393,9.393,0,0,1,1.65.1c.8.149,1.479.344,2.735.671C375.473,257.154,374.51,257.144,373.817,257.015ZM321.26,315.17c.234-.4.449-.784.718-1.187a10.642,10.642,0,0,1,.656-.93,17.393,17.393,0,0,1-.8,1.66l-.57.457ZM439.788,93.794c-1.415.925-2.71,1.4-3.962,2.244a32.645,32.645,0,0,1,3.244-2.873,74.692,74.692,0,0,1,16.035-9.35c-1.346.382-2.633.93-3.944,1.436l-1.964.769c-.651.267-1.278.59-1.918.882.59-.318,1.182-.659,1.8-.961.621-.286,1.245-.57,1.862-.855,1.243-.548,2.421-1.185,3.577-1.633,1.344-.57,2.6-1.15,3.848-1.716l3.82-1.473-4.05.855c-1.33.369-2.67.766-4.045,1.217a68.525,68.525,0,0,0-12.99,6.176,71.434,71.434,0,0,0-23.482,22.54c-1.764,2.7-2.647,5.477-3.844,8.113-1.708,1.76-3.415,3.446-5.143,4.91l.119-.12a38.33,38.33,0,0,1-2.773,3.469,20.975,20.975,0,0,1-3,2.691,18.361,18.361,0,0,1-1.57,1.023,15.363,15.363,0,0,1-1.64.74,13.33,13.33,0,0,1-3.6.855,88.135,88.135,0,0,1-9.476.18,44.291,44.291,0,0,0-5.829.39,23.388,23.388,0,0,0-6.44,1.9c-.491.25-1,.472-1.47.759l-1.378.913c-.45.318-.92.614-1.346.962l-1.212,1.13c-.39.389-.817.76-1.163,1.173l-1,1.272a17.672,17.672,0,0,0-1.718,2.633,39.933,39.933,0,0,0-3.764,10.431c-.775,3.292-1.337,6.387-2.024,9.233a31.042,31.042,0,0,1-2.6,7.469,14.5,14.5,0,0,1-8.1,6.874c-3.605,1.4-8.02,2.09-12.877,2.783-4.75.687-9.869,1.2-15.272,2.255a49.6,49.6,0,0,0-16.717,6.081,43.131,43.131,0,0,0-12.9,12.944,134.406,134.406,0,0,0-7.872,14.02c-1.915,3.742-3.761,7.285-5.773,10.424a32.694,32.694,0,0,1-6.677,7.792,30.7,30.7,0,0,1-8.793,4.847,87.966,87.966,0,0,1-11.243,3.1c-4.031.923-8.257,1.737-12.707,2.957a58.235,58.235,0,0,0-13.621,5.4,37.983,37.983,0,0,0-6.5,4.673q-1.467,1.439-2.892,2.918c-.822,1.06-1.764,2.124-2.45,3.214a70.361,70.361,0,0,0-6.489,12.667,67.266,67.266,0,0,1-4.93,10.21,13.011,13.011,0,0,1-5.854,5.337c-2.287.966-5.443,1.266-9.166,1.134-3.76-.145-7.987-.684-12.706-.86a37.384,37.384,0,0,0-15.714,2.365,29.058,29.058,0,0,0-7.393,4.466,37.4,37.4,0,0,0-5.528,5.735,99.572,99.572,0,0,0-7.5,11.538,81.436,81.436,0,0,1-6.463,9.706c-10.185,12.981-25.064,22.88-39.813,33.577L46.66,389.21c-10.428,7.576-21.732,16-30.455,23.34-13.534,11.387-11.72,16.042,2.015,9.658a87.9,87.9,0,0,0,12.668-6.547c14.492-9.55,29.38-20.7,44.156-30.231,10.068-6.494,20.839-14.115,31.313-21.363,9.863-6.849,20.1-13.878,29.3-22.922a89.688,89.688,0,0,0,12.465-15.155c3.495-5.46,6.217-10.554,9.3-14.206a20.094,20.094,0,0,1,3.814-3.608,12.168,12.168,0,0,1,4.17-1.892,19.152,19.152,0,0,1,2.547-.5c.97-.066,1.887-.2,2.967-.184,2.058-.068,4.387.08,6.824.222,4.888.282,10.49.864,16.9-.247a29.022,29.022,0,0,0,9.563-3.6,28.036,28.036,0,0,0,7.495-6.855,50.648,50.648,0,0,0,5.56-9.476c1.434-3.065,2.611-5.992,3.76-8.646,1.776-4.053,3.534-7.514,5.94-9.854a25.4,25.4,0,0,1,9.322-5.886,90.624,90.624,0,0,1,12.626-3.616c4.542-1.06,9.331-2.058,14.267-3.625a49.548,49.548,0,0,0,14.659-7.143,45.144,45.144,0,0,0,11.06-12.17c5.6-8.8,8.875-17.756,13.563-24.818a32.364,32.364,0,0,1,5.9-6.926,15.647,15.647,0,0,1,1.7-1.307l.86-.637.915-.549a26.655,26.655,0,0,1,4.007-1.88c5.737-2.183,12.62-3.02,19.752-4.2a99.7,99.7,0,0,0,10.926-2.313,38.768,38.768,0,0,0,11.176-4.988,28.918,28.918,0,0,0,4.93-4.292,26.7,26.7,0,0,0,3.693-5.37,41.524,41.524,0,0,0,3.7-11.282c.726-3.617,1.2-7.068,1.886-10.252a23.14,23.14,0,0,1,3.027-8.194,8.135,8.135,0,0,1,1.176-1.463l.635-.67.753-.54a9.09,9.09,0,0,1,3.4-1.657c2.617-.765,5.884-.817,9.45-.877A54.414,54.414,0,0,0,397.5,142a23.031,23.031,0,0,0,7.534-2.44,25.78,25.78,0,0,0,6.226-4.691,41.77,41.77,0,0,0,4.6-5.7c2.683-3.92,4.77-7.923,6.986-11.641,1.077-1.884,2.319-3.528,3.469-5.306l1.957-2.48.98-1.241,1.07-1.165a69.473,69.473,0,0,1,44.443-22.419c2.152-.153,4.262-.458,6.384-.52a55.266,55.266,0,0,1,6.387-.087c-1.57-.491-3.1-1.1-4.722-1.51a46.2,46.2,0,0,0-5.23-1.088,35.064,35.064,0,0,0-6.344.346c2.579-.455,5.376-.487,7.758-.746,1.682-.094,3.29-.183,4.88-.273l4.792.014a67.379,67.379,0,0,0-20.708-1.34c-.266.03-1.694.723-2.919,1.084-1.711.439-3.675,1.149-5.523,1.738-2.791,1.412-5.428,2.913-8.518,4.691l-1.2.647c-.4.24-.8.486-1.219.736-.834.5-1.713,1-2.65,1.506s-1.872,1.14-2.907,1.726c-1.032.6-2.13,1.216-3.24,1.955ZM289.448,218.676c1.15-2.542,2.616-5.32,4.1-7.944a9.807,9.807,0,0,1,1.092-1.3c-1.3,2.4-2.413,4.866-3.566,7.342l-2.014,4.258c-.573,1.312-1.062,2.631-1.76,3.977a56.468,56.468,0,0,1-9.338,13.765c-.125-.042-.384-.094-.353-.129,4.312-4.479,7.448-9.877,10.206-15.4.4-.795.926-1.6,1.387-2.407a4.554,4.554,0,0,1,.247-2.16Zm77.038-61.24q.535-2.394,1.3-4.73c-.279,1.676-.3,3.376-.64,5.023-.987,4.79-1.768,9.693-3.56,14.347a24.735,24.735,0,0,1-3.753,6.449,22.154,22.154,0,0,1-5.694,4.825c-4.308,2.57-9.2,3.812-14.035,4.7-4.855.885-9.747,1.412-14.582,2.223-7.005,1.18-14.174,2.979-19.792,7.41-.568.369-1.082.8-1.611,1.223l-1.6,1.254,1.42-1.485a8.957,8.957,0,0,1,1.536-1.386l2.17-1.577c.773-.45,1.529-.934,2.337-1.321a34.567,34.567,0,0,1,4.943-2.076,72.506,72.506,0,0,1,10.368-2.538,31.832,31.832,0,0,0,5.256-1.54c.689-.261-.11-.469-.237-.7,2.252-.068,4.8-.217,6.63-.2a31.819,31.819,0,0,1,3.66.376q2.416-.9,4.754-1.981c.8-.445,1.588-.884,2.342-1.37.383-.055.766-.116,1.141-.2-1.19.594-2.436,1.1-3.7,1.589a15.34,15.34,0,0,0,8.672-2.66,23.423,23.423,0,0,0,6.89-7.12l-.951-.243.7-1.179q.117.75.206,1.548a30.187,30.187,0,0,0,3.738-8.992c.831-3.176,1.4-6.434,2.106-9.673Zm19.79-18.576a24.434,24.434,0,0,0-8.08,1.194,14.441,14.441,0,0,0-6.537,4.8,14.948,14.948,0,0,1,7.4-5.5,32.872,32.872,0,0,1,9.31-1.288c.952-.03,1.972-.01,2.944,0,3.38.008,6.815-.065,9.987-1.254-3.392,1.626-7.3,1.959-10.542,2.218-2.011-.088-3.219-.18-4.484-.167ZM243.042,252.34c3.855-.976,7.7-1.947,11.567-2.925a92.974,92.974,0,0,0,9.929-3.1,44.809,44.809,0,0,0,5.646-2.685,27.978,27.978,0,0,1-5.013,3.074,78.528,78.528,0,0,1-11.44,3.578l-10.689,2.057ZM412.78,126.167c1.8-3.166,3.23-6.41,5.024-9.835a24.126,24.126,0,0,1,2.666-3.383c-1.527,2.83-2.763,5.755-4.365,9.127q-1.6,2.1-3.325,4.09ZM204.042,287.579c1.23-1.957,2.2-4.407,3.21-6.385,1.8-3.569,3.521-7.1,5.55-10.74-.52,1.338-1.033,2.672-1.355,3.606-2.557,5.293-4.607,9.9-7.4,13.519Zm82.188-66.888c1.27-2.988,2.33-5.969,3.937-9.136a35.25,35.25,0,0,1,3.585-4.988c-.745,1.31-1.428,2.638-2.083,3.89l-1.7,3.507c-1.533,2.753-2.637,4.74-3.743,6.727Zm-2.064-2.295a85.694,85.694,0,0,1-6.387,11.351,20.29,20.29,0,0,1-2.145,2.336,56.01,56.01,0,0,0,4.752-7.576q1.956-3.014,3.78-6.111Zm-76.424,67.556c.481-1.043.825-2.246,1.306-3.19,1.866-3.777,3.5-7.72,5.475-11.568-.958,2.188-1.83,4.4-3.009,7.435A77.79,77.79,0,0,1,207.742,285.952Zm100.143-93.906a31.445,31.445,0,0,1,6.98-3.268,46.3,46.3,0,0,1,7.81-1.447,69.337,69.337,0,0,0-6.982,2.038,39.713,39.713,0,0,0-7.808,2.677Zm87.14-58.45a25.81,25.81,0,0,0,3.771-.957,15.462,15.462,0,0,0,5.4-2.813,15.861,15.861,0,0,1-4.165,2.949,16.824,16.824,0,0,1-5,.822Zm-53.5,47.36c.708-.244,1.5-.676,2.01-.773a25.443,25.443,0,0,0,9.325-3.634,19.069,19.069,0,0,1-4.934,3.126,40.957,40.957,0,0,1-6.4,1.281Zm-69.093,57.555a23.461,23.461,0,0,1-2.88,1.45,41.375,41.375,0,0,0,4.117-3.437c.36-.334.813-.6,1.393-1.152l1.069-.926a12.071,12.071,0,0,0,1.43-1.376,21.715,21.715,0,0,1-1.622,2.01,18.267,18.267,0,0,1-1.32,1.479c-.85.778-1.485,1.418-2.187,1.952Zm13.78-24.652c.741-1.621,1.515-3.321,2.4-4.929.436-.791.958-1.568,1.456-2.33q.754-1.166,1.587-2.278c-.52.835-.972,1.673-1.422,2.535s-.956,1.752-1.39,2.678c-.92,1.48-1.8,2.914-2.626,4.324ZM428.174,101.224c.748-.862,1.515-1.682,2.282-2.53a21.835,21.835,0,0,1,2.5-2.45,26.039,26.039,0,0,1,3.568-2.292c-1.152,1.008-2.21,2.13-3.487,3.361-1.852,1.358-3.34,2.653-4.865,3.911ZM119.778,341.7c-2.04,1.519-3.957,2.7-5.952,3.972,1-.851,2.045-1.8,2.975-2.528,2.036-1.551,4.015-2.985,7.41-5.784a52.92,52.92,0,0,1-4.433,4.34Zm209.06-155.692a36.9,36.9,0,0,1,3.624-.832c1.266-.163,2.434-.106,3.637-.154-1.156.287-2.31.574-3.835.951l-3.427.035Zm-62.345,53.154c.66-.356,1.335-.683,2.02-1l1.874-1.14a14.679,14.679,0,0,1-2.047,1.656c-.74.4-1.493.814-2.252,1.229l-2.464,1.037-.28-.15,1.6-.818c.539-.26,1.066-.522,1.554-.811Zm6.186-2.313a4.447,4.447,0,0,1-1.452.76,15.912,15.912,0,0,0,1.755-1.526l.863-.779c.276-.276.534-.587.806-.875.34-.414.886-.651,2.01-1.743-.824,1.1-1.59,1.811-2.185,2.525a21.844,21.844,0,0,1-1.8,1.638ZM143.7,318.946c-.691,1.306-1.377,2.7-2.15,3.869a34.252,34.252,0,0,1-2.292,2.757c.839-1.316,1.72-2.6,2.843-4.543.408-.534,1-1.307,1.6-2.083ZM353.057,179.931a26.952,26.952,0,0,1-7.023,3.373,22.064,22.064,0,0,1-2.878.594q1.364-.419,2.7-.91a27.9,27.9,0,0,0,7.2-3.057ZM296.43,197.893a17.815,17.815,0,0,1,1.8-2.32,29.608,29.608,0,0,1,4.157-3.3,27.8,27.8,0,0,0-3.264,3,29.751,29.751,0,0,0-2.7,2.622ZM130.265,336.475c-1.407,1.55-2.837,3.06-4.374,4.525a23.657,23.657,0,0,1-2,1.492c1.122-1.157,2.25-2.3,3.5-3.69C128.518,337.947,129.379,337.2,130.265,336.475ZM363.127,168.482A10.4,10.4,0,0,1,362.1,170.6c.43-1.229.7-2.524,1.063-3.8.194-.9.535-1.746,1.322-4.87a50.731,50.731,0,0,1-1.356,6.557Zm1.345-20.086-.908,2.476-.758,2.41a8.326,8.326,0,0,1,.152-1.164l.383-1.434c.172-.508.352-1.046.552-1.641a16.9,16.9,0,0,1,.777-2,19.775,19.775,0,0,1,1.23-2.533,17.374,17.374,0,0,0-.987,2.608c-.2.577-.325.942-.441,1.28Zm-6.3,23.275a5.568,5.568,0,0,1-.77,1.158,24.3,24.3,0,0,0,1.079-2.342l.7-1.272a17.439,17.439,0,0,1-1.012,2.456Zm54.225-47.31a9.01,9.01,0,0,1-.788,1.654,9.1,9.1,0,0,1-1.453,1.282c-.123.065.471-.927.944-1.983.606-.432,1.129-1,1.3-.952Zm17.972-23.525a8.534,8.534,0,0,1-1.593,1.105c-.145.009.66-1.044,1.032-1.363a22.615,22.615,0,0,1,2.024-1.451,20.8,20.8,0,0,1-1.463,1.709Zm-95.5,81.436a9.782,9.782,0,0,1-1.727-.088c.81-.157,1.646-.372,2.38-.462a14,14,0,0,1,1.884,0,24.7,24.7,0,0,1-2.537.55Zm-101.8,69.69,1.847-.7,1.862-.582a5.937,5.937,0,0,1-.986.522c-1.247.337-2.473.81-3.867,1.259.451-.2.785-.358,1.144-.495ZM278.229,233.8a12.875,12.875,0,0,1-1.6,1.629c.534-.6,1.041-1.218,1.527-1.88.462-.639,1.068-1.138,2.05-2.494a29.37,29.37,0,0,1-1.973,2.745Zm103.995-97.8c.664-.26,1.307-.47,2.04-.678a11.228,11.228,0,0,1,1.3.041,9.477,9.477,0,0,1-1.074.565c-1.149.006-1.7.025-2.266.072ZM222.074,257.7c-.591.4-.968.442-1.379.722a9.838,9.838,0,0,1,1.41-1.256,23.394,23.394,0,0,1,2.476-1.476c-1.352,1-2.09,1.762-2.506,2.01Zm97.52-71.64q1.348-.387,2.722-.671c.825-.142,1.66-.218,2.48-.3l-2.468.6c-1.033.135-1.877.23-2.735.371Zm-20.528,13.564a2.97,2.97,0,0,1-1.064.712,9.121,9.121,0,0,1,.95-1.26,13.619,13.619,0,0,1,2.065-1.765c-1.034,1.03-1.464,1.843-1.95,2.313Zm-55.317,46.367c.539-.168,1.049-.35,1.626-.5.393-.1.873-.145,1.315-.215l-2.056.708-.885.006ZM-8.026,315.065c1.114-1.394,2.146-2.374,3.187-3.568-.736,1.309-1.4,2.537-2.293,3.914a60.347,60.347,0,0,1-6.047,7.746,58.809,58.809,0,0,1-7.307,6.783c1.27-.79,2.425-1.738,3.652-2.61,1.15-.954,2.334-1.888,3.443-2.9-.992,1.032-2.117,1.994-3.17,2.992l-3.232,2.7c-1.253.942-2.355,1.95-3.583,2.77l-1.8,1.286c-.606.421-1.26.783-1.9,1.179a44.053,44.053,0,0,0,7.99-4.271A59.6,59.6,0,0,0-7.7,320.689c.917-1.128,1.86-2.3,2.713-3.432.818-1.13,1.664-2.259,2.45-3.389l4.707-6.747a156.533,156.533,0,0,1,9.5-12.69c1.942-2.321,3.52-4.642,5.495-6.754a32.012,32.012,0,0,1,3.3-1.424l1.64-.6c.554-.164,1.115-.291,1.658-.437l-.16.055A27.418,27.418,0,0,1,32.1,282.3a59.242,59.242,0,0,1,9.782-.64c3.47-.015,7.119.087,10.994-.117a40.577,40.577,0,0,0,12.216-2.31,21.187,21.187,0,0,0,2.87-1.273,20.409,20.409,0,0,0,2.75-1.63,18.442,18.442,0,0,0,2.531-1.98l1.209-1.067c.383-.37.708-.776,1.063-1.167a35.9,35.9,0,0,0,6.271-10.069c2.95-6.8,4.56-13.3,7.074-18.5a23.741,23.741,0,0,1,3.51-5.423,14.225,14.225,0,0,1,4.317-3.15c3.135-1.41,7.246-1.647,12.19-1.417,4.81.189,10.143.935,16.129,1.029a45.563,45.563,0,0,0,9.6-.825,28.324,28.324,0,0,0,10.082-4.159,27.438,27.438,0,0,0,7.742-7.944,39.218,39.218,0,0,0,4.178-9.092c1.907-5.962,2.68-11.482,3.72-16.486a43.753,43.753,0,0,1,3.263-10.819,10.582,10.582,0,0,1,5.5-5.392,15.349,15.349,0,0,1,4.251-.892,40.158,40.158,0,0,1,5.637.037c4.142.221,8.893.89,14.418.531a37.205,37.205,0,0,0,4.251-.522,31.979,31.979,0,0,0,4.377-1.181,30.33,30.33,0,0,0,7.942-4.224,46.456,46.456,0,0,0,10.8-11.912c2.725-4.107,4.933-8.118,7.158-11.808a59.858,59.858,0,0,1,6.85-9.687,23.669,23.669,0,0,1,3.756-3.36,16.149,16.149,0,0,1,2-1.213c.734-.29,1.392-.673,2.158-.944a35.748,35.748,0,0,1,10.82-1.74c4.09-.157,8.526.006,13.306-.082a53.708,53.708,0,0,0,15.5-2.17,26.514,26.514,0,0,0,4.083-1.615l2.01-1.007c.666-.342,1.276-.82,1.912-1.232a27.734,27.734,0,0,0,6.655-6.059,51.364,51.364,0,0,0,7.539-13.883c1.736-4.483,3.083-8.736,4.619-12.46,1.512-3.728,3.266-6.826,5.213-8.632a9.393,9.393,0,0,1,3.417-2.138,14.01,14.01,0,0,1,4.4-.695,39.837,39.837,0,0,1,5.867.563l7,1.27a58.962,58.962,0,0,0,8.264.943,29.066,29.066,0,0,0,9.766-1.258,20,20,0,0,0,2.49-.977l1.227-.552c.4-.2.773-.453,1.157-.684.76-.475,1.525-.948,2.254-1.463q1.025-.854,2.02-1.743a28.93,28.93,0,0,0,5.829-7.9,55.038,55.038,0,0,0,3.219-7.73c.86-2.478,1.547-4.754,2.274-6.94,1.42-4.283,2.938-8.026,4.89-10.307,1.816-2.323,4.537-3.949,8.123-5.112a51.949,51.949,0,0,1,12.221-2c6.49-.466,14.271-.48,22.4-2.96a37.967,37.967,0,0,0,5.97-2.413c.487-.226.958-.518,1.432-.78s.93-.52,1.44-.878l1.468-1.01,1.34-1.1A27.261,27.261,0,0,0,440.22,19.57c2.377-5.894,1.759-11.612.017-14.91-1.718-3.37-3.8-4.346-4.663-4.2-.97.17-1.04,1.494-.957,3.535a18.594,18.594,0,0,1-1.427,8.217c-1.576,3.6-4.6,6.682-8.449,9.268l-1.155.67-1.31.636-1.366.568-1.414.5a37.9,37.9,0,0,1-6.1,1.376,133.327,133.327,0,0,1-13.694.961,76.229,76.229,0,0,0-15.168,1.852,33.106,33.106,0,0,0-14.893,7.586,32.079,32.079,0,0,0-6.775,9.587,90.342,90.342,0,0,0-3.877,9.98,69.627,69.627,0,0,1-3.38,8.665,13.843,13.843,0,0,1-4.29,5.42A10.185,10.185,0,0,1,345.879,71a32.881,32.881,0,0,1-7.73-.791c-2.9-.554-6.057-1.305-9.572-1.855a36.9,36.9,0,0,0-11.82-.172c-.54.1-1.076.16-1.62.3l-1.635.472c-.541.169-1.093.32-1.623.518l-1.563.664a25.9,25.9,0,0,0-5.749,3.655,30.53,30.53,0,0,0-4.445,4.745,41.1,41.1,0,0,0-3.181,5.039,80.451,80.451,0,0,0-4.228,9.7c-1.156,3.079-2.182,6.03-3.278,8.712-1.784,4.471-3.81,8.187-6.233,10.5a18.071,18.071,0,0,1-4.227,2.8,25.677,25.677,0,0,1-5.74,1.555c-4.3.711-9.346.69-14.8.77-5.442.117-11.388.265-17.686,1.947a39.258,39.258,0,0,0-5.8,2.15,30.1,30.1,0,0,0-5.494,3.155,40.823,40.823,0,0,0-8.448,8.367,121.881,121.881,0,0,0-8.516,13.477,78.732,78.732,0,0,1-7.507,11.456c-2.67,3.174-5.5,5.263-8.8,6.182-3.22,1-7.639.808-12.557.467-2.488-.172-5.154-.362-8.022-.34a34.4,34.4,0,0,0-9.2,1.179,24.91,24.91,0,0,0-9.029,4.785,25.634,25.634,0,0,0-6.155,7.8c-2.9,5.626-3.937,11.1-4.917,16.126a126.865,126.865,0,0,1-2.972,13.944,21,21,0,0,1-4.034,7.8,13.418,13.418,0,0,1-6.7,3.977,34.22,34.22,0,0,1-9.591.781c-3.528-.094-7.294-.431-11.242-.574a55.5,55.5,0,0,0-12.416.7,26.285,26.285,0,0,0-12.512,5.888,30.637,30.637,0,0,0-7.777,10.774,88.31,88.31,0,0,0-3.957,11.077c-2.123,7.047-4.206,13.715-8.452,17.79a17.4,17.4,0,0,1-7.806,4.292A44.539,44.539,0,0,1,48.693,272.1c-4.556.18-9.358.1-14.377.68a37.888,37.888,0,0,0-14.78,4.664,49.415,49.415,0,0,0-11.81,9.567,108.137,108.137,0,0,0-9.074,11.452l-8.014,11.668-2.014,2.825-2.04,2.634-2.2,2.512-2.344,2.382a52.082,52.082,0,0,1-10.612,7.933,30.463,30.463,0,0,1-12.052,3.963,19.657,19.657,0,0,1-11.841-2.244,16.726,16.726,0,0,0,8.82,5.28c1.144.4,4.43.137,6.7-.275a23.78,23.78,0,0,1-4.185.532,27.429,27.429,0,0,1-4.053-.06,23.377,23.377,0,0,1-9.844-3.13,22.493,22.493,0,0,0,10.153,4.9,27.25,27.25,0,0,0,11.648-.329,5.9,5.9,0,0,0,1.162-.561c.552-.33,1.222-.723,1.849-1.025.885-.388,1.788-.908,2.722-1.417l1.41-.765,1.335-.858a84.023,84.023,0,0,0,7.53-7.1c2.639-2.716,5.63-5.867,9.192-10.261ZM153.448,195.41q-.723,4.666-1.75,9.278a10.543,10.543,0,0,1-.68,1.66c.555-2.84.947-5.67,1.374-8.525.242-1.612.526-3.277.833-4.908a43.131,43.131,0,0,1,.8-4.533,33.268,33.268,0,0,1,3.177-8.22,21,21,0,0,1,2.624-3.617,17.839,17.839,0,0,1,3.448-2.882c.117.068.369.173.328.2a18.493,18.493,0,0,0-6.491,7.229,38.69,38.69,0,0,0-3.207,9.228c-.2.916-.526,1.882-.766,2.835a5.161,5.161,0,0,1,.314,2.255Zm-76.112,62.7a40.815,40.815,0,0,1-2.288,4.671,20.83,20.83,0,0,0,.853-2.549c.27-.85.539-1.693.844-2.53,1.9-4.816,3.25-9.854,5.2-14.714a42.575,42.575,0,0,1,3.513-7.04l1.17-1.6c.2-.264.385-.536.591-.794l.684-.721c.459-.478.9-.969,1.376-1.434l1.564-1.23a19.542,19.542,0,0,1,7.114-3.417,32.937,32.937,0,0,1,7.808-1.025c5.246-.127,10.434.514,15.613.78a45.7,45.7,0,0,0,11.271-.534,19.965,19.965,0,0,0,9.89-4.93,27.378,27.378,0,0,0,2.944-3.094,16.486,16.486,0,0,1-2.647,3.464,20.208,20.208,0,0,1-10.052,5.025,48.717,48.717,0,0,1-11.277.6,35.6,35.6,0,0,0-5.778.346c-.77.1.009.481.089.734l-6.883-1.16c-1.674-.316-2.508-.682-3.743-.987a34.916,34.916,0,0,0-5.214,1.463,21.885,21.885,0,0,0-2.507,1.272c-.39.063-.788.115-1.182.192a23.815,23.815,0,0,1,3.918-1.473,12.408,12.408,0,0,0-9,2.95,25.154,25.154,0,0,0-6.418,8.328l1,.153a11.78,11.78,0,0,0-.69,1.319c-.1-.529-.216-1.082-.262-1.6-3.28,6.11-4.87,13.015-7.51,19.535ZM53.062,275.576a37.187,37.187,0,0,0,8.584-1.395,20.778,20.778,0,0,0,7.6-4.17,21.509,21.509,0,0,1-8.56,4.83,43.608,43.608,0,0,1-9.813,1.63c-1.009.074-2.094.084-3.128.077-3.622,0-7.222-.1-10.818.068,3.952-.524,7.963-.73,11.4-1.04,2.118.045,3.4.092,4.738,0ZM202.33,168.83a21.987,21.987,0,0,1-5.772,2.266,31.99,31.99,0,0,1-6.236.72c-3.658.1-7.338-.276-11.006-.422a47.782,47.782,0,0,0-6.62.09,29.993,29.993,0,0,1,6.173-.7c1.78.023,3.645.13,5.7.247a64.087,64.087,0,0,0,6.85.121,29.7,29.7,0,0,0,5.16-.41A21.6,21.6,0,0,0,202.33,168.83ZM20.942,281.53a48.47,48.47,0,0,0-8.484,7.71c-.65.74-2.248,1.865-3.345,2.914a53.34,53.34,0,0,1,6.913-8.036,27.266,27.266,0,0,1,2.637-1.5,18.041,18.041,0,0,1,2.28-1.091ZM242.226,130.27a12.631,12.631,0,0,0-1.714.7c-.54.288-1.08.577-1.617.862-1.07.556-2.007,1.252-2.908,1.82a38.506,38.506,0,0,0-8.47,7.922q.98-1.607,2.067-3.145a30.526,30.526,0,0,1,6.017-5.287,18.853,18.853,0,0,1,3.226-1.706l1.664-.664a16.331,16.331,0,0,1,1.735-.5Zm-86.176,62.2c-.49,3.334-.688,6.634-1.328,10.312a37.865,37.865,0,0,1-2.067,6.17c.73-3.133,1.2-6.22,1.57-8.644.731-3.269,1.236-5.58,1.825-7.839Zm2.583,1.728c.9-4.537,2.045-8.765,4.04-11.794a8.473,8.473,0,0,1,1.91-1.878,14.767,14.767,0,0,0-2.164,3.153,26.084,26.084,0,0,0-1.506,3.772,52.562,52.562,0,0,0-2.28,6.747Zm79.52-64.785a10.753,10.753,0,0,0-1.523.99l-1.412,1a37.136,37.136,0,0,0-9.28,9.154,44.038,44.038,0,0,1,5.12-6.488A24.569,24.569,0,0,1,238.153,129.413Zm-97.862,97.558a22.845,22.845,0,0,1-8.023,2.976,36.347,36.347,0,0,1-8.6.038,49.087,49.087,0,0,0,7.807-.727,25.688,25.688,0,0,0,8.813-2.287Zm-96.87,53.94c-1.716.116-3.41.332-5.008.407a47.735,47.735,0,0,0-7.7.752,37.355,37.355,0,0,1,6.172-1.219q3.267-.06,6.533.06Zm59.9-48.36c-.71.153-1.5.5-1.97.554a17.7,17.7,0,0,0-4.69,1.212,8.267,8.267,0,0,0-1.032.49,5.733,5.733,0,0,0-.968.607l-.964.641a10.67,10.67,0,0,0-.89.8,10.282,10.282,0,0,1,.813-.91c.31-.263.63-.535.971-.829a10.941,10.941,0,0,1,2.668-1.73,20.656,20.656,0,0,1,6.062-.831Zm65.243-57.126a5.689,5.689,0,0,1,1.582-.256,14.378,14.378,0,0,1,1.613-.02,20.167,20.167,0,0,0-2.573.685,21.745,21.745,0,0,0-2.307,1.044,6.5,6.5,0,0,1-.67.293l-.84.421a12.7,12.7,0,0,0-2.592,1.723,14.443,14.443,0,0,1,3.232-2.734c.485-.262.914-.493,1.313-.71.429-.167.838-.3,1.242-.446Zm-10.688,23.832c-.278,1.841-.506,3.76-.924,5.667a50.586,50.586,0,0,1-1.655,5.633c.51-2.022.907-4.012,1.268-6.171.446-1.745.88-3.438,1.311-5.13ZM1.528,304.365c-1.193,2-2.26,3.994-3.616,6.063a37.235,37.235,0,0,1-2.836,3.325c.78-1.375,1.563-2.75,2.475-4.356,1.466-1.857,2.72-3.444,3.977-5.032ZM329.974,78.918c2.605.615,4.906,1.39,7.5,2.02-1.481-.173-3.011-.358-4.277-.624l-4.16-.943a50.773,50.773,0,0,0-5.377-.93c1.72.011,3.047.08,4.07.177A14.117,14.117,0,0,1,329.974,78.918ZM116.985,229.933c-1.323.015-2.691.128-3.9.03-1.324-.1-2.506-.4-3.735-.572,1.218-.08,2.457-.123,4.109-.166l3.524.708Zm57.285-52.854a26.6,26.6,0,0,0-4.352.427c.383-.133.756-.282,1.139-.432a12.979,12.979,0,0,1,1.3-.288,29.8,29.8,0,0,1,5.512-.124l.214.254C176.749,176.924,175.477,177.039,174.27,177.079Zm-6.431-.224a8.645,8.645,0,0,1,1.515-.205,15.693,15.693,0,0,0-3.75,1.91c-.355.3-.869.422-1.974,1.24A12.619,12.619,0,0,1,167.839,176.855ZM301.909,90.5a29.2,29.2,0,0,1,1.878-4.324,17.883,17.883,0,0,1,2.323-3.032,32.468,32.468,0,0,0-2.782,4.959c-.375.6-.92,1.488-1.419,2.4ZM92.254,233.486a16.012,16.012,0,0,1,6.857-3.66,15.132,15.132,0,0,1,2.929-.377,22.505,22.505,0,0,0-2.773.7,17.425,17.425,0,0,0-4.1,1.444c-.579.249-1.059.6-1.565.87-.46.347-.9.684-1.348,1.023Zm59.8-14.755a16.224,16.224,0,0,1-1.54,2.97,22.971,22.971,0,0,1-4.19,4.463,25.712,25.712,0,0,0,3.318-3.9A30.8,30.8,0,0,0,152.054,218.731ZM318.478,75.113a25.075,25.075,0,0,1,3.338-.44,32.326,32.326,0,0,1,3.379.052,16.025,16.025,0,0,1,2.6.521,39.767,39.767,0,0,0-5.392-.078,18.709,18.709,0,0,0-2.061-.107l-.947-.024c-.308.026-.613.052-.917.076ZM82.208,246.783a17.12,17.12,0,0,1,1.16-2.26L82.036,248.6c-.308.93-.7,1.845-1.934,5.073,1.195-3.971,1.58-5.485,2.107-6.885Zm-4.966,21.082c.27-.4.562-.79.814-1.186l.7-1.2c.457-.8.969-1.587,1.335-2.39a5.666,5.666,0,0,1-.4,1.194,31.924,31.924,0,0,1-4.813,7.218,35.289,35.289,0,0,0,2.358-3.641Zm10.164-24.734c.265-.514.553-.949.827-1.417-.407.918-.812,1.824-1.182,2.818a16.449,16.449,0,0,1-.818,1.45c.519-1.266.82-2.11,1.173-2.85Zm-66.953,40.2c-.086-.083.95-.76,1.49-1.167a8.027,8.027,0,0,1,1.936-.544c.077.009-.157.138-.509.4s-.816.637-1.286,1.006a7.911,7.911,0,0,1-1.63.308ZM-.573,305.221a6.88,6.88,0,0,1,1.381-1.459,5.627,5.627,0,0,1-.776,1.592,24.689,24.689,0,0,1-1.716,1.926,22.007,22.007,0,0,1,1.111-2.058Zm110.623-72.9a9.8,9.8,0,0,1,1.716.43c-.842-.006-1.733.03-2.468-.01a18.321,18.321,0,0,1-1.863-.337A20.652,20.652,0,0,1,110.05,232.321ZM212.2,164.862a35.3,35.3,0,0,1-3.008,3.087,10.539,10.539,0,0,1,.747-.989q1.615-1.5,3.081-3.156c-.322.418-.554.74-.82,1.058Zm-50.04,13.682a11.671,11.671,0,0,1,1.728-1.345,21.845,21.845,0,0,0-1.668,1.6c-.244.282-.5.552-.837.892-.3.38-.71.8-1.166,1.474a14.929,14.929,0,0,1,1.943-2.617ZM57.416,278.276c-.669.26-1.328.5-2.083.748a9.884,9.884,0,0,1-1.365.023c.243-.19.685-.375,1.1-.618l2.345-.153ZM219.74,154.66a7.8,7.8,0,0,1,1.023-1.09c-.283.54-.579,1.184-.857,1.593-.423.633-.826,1.1-1.71,2.224C219.026,155.948,219.46,155.041,219.74,154.66Zm-93.1,77.209c-1.017.055-2.037.127-3.024.1-.906-.025-1.79-.142-2.66-.237q1.359-.009,2.717-.057C124.775,231.772,125.706,231.822,126.64,231.869Zm22.445-14.2a3.641,3.641,0,0,1,.907-1.043,7.659,7.659,0,0,1-.7,1.577,17.437,17.437,0,0,1-1.85,2.367C148.313,219.217,148.682,218.292,149.085,217.671Zm53.55-42.318a19.663,19.663,0,0,1-2.027.866,11.474,11.474,0,0,1-1.721.4l1.334-.47,1.3-.58a10.846,10.846,0,0,0,1.111-.216ZM73.563,151.774c-.472.325-.908.539-1.385.817a6.451,6.451,0,0,1,.654-1.4,17.535,17.535,0,0,1,4.723-4.583,20.931,20.931,0,0,0-2.76,1.3c.75-.636,1.648-1.15,2.385-1.706.891-.606,1.66-1.278,2.6-1.8a12.873,12.873,0,0,0-3.132.733,18.08,18.08,0,0,0-4.668,2.967,19.736,19.736,0,0,0-4.045,4.984,15.74,15.74,0,0,0-1.987,6.308,4.442,4.442,0,0,0,.228,1.9,16.054,16.054,0,0,0,.645,1.758c-.225.513-.47,1.057-.658,1.61s-.34,1.12-.493,1.712l.01-.085a21.038,21.038,0,0,0,10.392,13.643,18.63,18.63,0,0,0,8.443,2.223,22.946,22.946,0,0,0,8.4-1.471c4.3-1.59,8.27-3.795,11.125-7.4a25.37,25.37,0,0,0,3.446-5.766,25.948,25.948,0,0,0,1.839-6.559,29.57,29.57,0,0,0-1.1-13.076,31.33,31.33,0,0,0-12.993-17A27.534,27.534,0,0,0,84.6,126.954a29.5,29.5,0,0,0-11.072.5,31.605,31.605,0,0,0-17.96,11.618A27.941,27.941,0,0,0,50.7,149.27a28.819,28.819,0,0,0-.46,11.157,32.025,32.025,0,0,0,11.29,19.907,28.692,28.692,0,0,0,5.074,3.307,21.482,21.482,0,0,0,2.827,1.243,21.262,21.262,0,0,0,3.134.955,25.591,25.591,0,0,0,12.67-.465,22.676,22.676,0,0,0,8.24-4.345,17.047,17.047,0,0,0,5.415-7.956,8.072,8.072,0,0,0-.115-5.533,3.02,3.02,0,0,0-2.281-1.926,4.346,4.346,0,0,0-2.691.795,13.645,13.645,0,0,0-1.335.946c-.5.34-.978.7-1.416,1.066-1.18.795-2.46,1.117-3.451,1.83a15.664,15.664,0,0,1-5.532,2.7,9.752,9.752,0,0,1-6.147-.3,28.7,28.7,0,0,1-3.533-2.051,15.9,15.9,0,0,1-3.188-2.987,17.24,17.24,0,0,1-3.39-7.431,15.752,15.752,0,0,1,.313-7.358,16.57,16.57,0,0,1,2.58-5.285,15.738,15.738,0,0,1,5.016-4.32,14.719,14.719,0,0,1,3.972-1.274,13.294,13.294,0,0,1,11.453,2.423,17.325,17.325,0,0,1,6.463,11.25,12.569,12.569,0,0,1-.26,4.872,15.961,15.961,0,0,1-1.778,4.447,13.432,13.432,0,0,1-7,6.173,9.225,9.225,0,0,1-2.21.48c-.37.03-.72.005-1.092.028-.365-.056-.74-.075-1.114-.143a9.876,9.876,0,0,1-4.339-2.142,11.651,11.651,0,0,1-3.612-5.32,10.744,10.744,0,0,1-.481-3.1,9.513,9.513,0,0,1,.593-3.031,12.565,12.565,0,0,1,10.353-7.558,28.287,28.287,0,0,1,3.446-.347,8.39,8.39,0,0,0-2.6-2.668,2.337,2.337,0,0,0-.9-.172c-.382-.014-.806.046-1.162.04.844-.154,1.749-.082,2.537-.2q.823-.049,1.642-.148l1.667,0a14.622,14.622,0,0,0-7.262-2.26c-.1,0-.58.494-1,.693l-1.894.9-1.19,1.339a17.074,17.074,0,0,1-1.18,1.37,22.925,22.925,0,0,1-3.216,2.9Zm28.146-1.584a11.529,11.529,0,0,1,.77,2.883c.03.187-.12.4-.19.593a20.9,20.9,0,0,0-.926-2.539c-.2-.466-.338-.968-.58-1.425a9.49,9.49,0,0,1-.761-1.21c-.4-.79-.836-1.564-1.283-2.323a24.132,24.132,0,0,0-1.52-2.16,3.171,3.171,0,0,1,.254-.24,25.472,25.472,0,0,1,1.73,2.443,24.773,24.773,0,0,1,1.37,2.688,4.958,4.958,0,0,1,.2.887c.322.116.8.068.936.4ZM85.124,176.527a7.118,7.118,0,0,1-1.6-.189c.567-.107,1.1-.512,1.628-.51a15.542,15.542,0,0,0,8.592-3.186,19.7,19.7,0,0,0,5.917-7.137,17.311,17.311,0,0,0,1.169-3.2c.126-.555.277-1.1.387-1.662l.227-1.693c.076-.429.2-.853.312-1.287A4.971,4.971,0,0,1,101.91,159l-.216,1.723c-.112.568-.27,1.128-.4,1.692a23.5,23.5,0,0,1-1.139,3.275,4.454,4.454,0,0,0-.213,1.924c.01.29.42.233.65.33a9.785,9.785,0,0,1-1.895,1.462,3.892,3.892,0,0,1-1.5.3,14.829,14.829,0,0,1-.474,1.83c-.068.357-.126.738-.223,1.093l-.441.121a12.8,12.8,0,0,0,.742-1.242,3.522,3.522,0,0,0-1.542.44,7.914,7.914,0,0,0-1.24.97,10.151,10.151,0,0,1-2.592,2.087l.52.793c-.154.074-.3.159-.459.224,0-.348-.014-.71-.03-1.058a14.859,14.859,0,0,1-6.33,1.558Zm-8.865-3.663a13.579,13.579,0,0,0,4.509,2.714,14.7,14.7,0,0,1-5.526-2.56,7.255,7.255,0,0,1-.7-.68,17.112,17.112,0,0,1-1.994-2.713,16.033,16.033,0,0,0,2.8,2.146,6.356,6.356,0,0,0,.917,1.093Zm11.964-36.5,1.767.7c.586.25,1.132.583,1.7.879a12.183,12.183,0,0,1,1.408.913,10.977,10.977,0,0,1,1.341,1.028,16.3,16.3,0,0,1,1.5,1.385c-.568-.336-1.226-.46-1.8-.864-.43-.317-.865-.657-1.38-.994a13.34,13.34,0,0,0-1.718-1.112c-.357-.265-.76-.634-1.255-.95l-1.576-.985Zm-18.166,28.56a12.172,12.172,0,0,1-.778-1.741c-.107-.3-.223-.617-.313-.937-.068-.324-.13-.657-.183-1-.076-.344.329-.986.568-1.454a8.777,8.777,0,0,0,.375,1.654l.257.828.365.838a11.1,11.1,0,0,0-.29,1.811Zm-.372-31.587a10.373,10.373,0,0,1,2.585-1.309,18,18,0,0,1,4.5-.268c-.479.175-.958.35-1.3.472q-1.506.135-3,.4c-.936.235-1.894.38-2.788.7Zm33.5,15.16a14.094,14.094,0,0,1,.93,1.557,9.194,9.194,0,0,1,.746,1.717,7.072,7.072,0,0,1-.238,2.248c-.316-1.019-.558-2.04-.886-2.806a22.983,22.983,0,0,0-.552-2.715Zm2.877-.554a33.842,33.842,0,0,0-2.41-4.943,7.562,7.562,0,0,1-.5-1.374l1.2,1.691c.36.573.687,1.145,1,1.678a28.21,28.21,0,0,1,.7,2.948Zm-34.33-12.97a4.379,4.379,0,0,1,1.024-.686,20.839,20.839,0,0,1,4.308-.677,19.808,19.808,0,0,0-2.577.77,20.669,20.669,0,0,0-2.756.594ZM104.725,161a11.162,11.162,0,0,1-.27,2.678,10.352,10.352,0,0,1-1.4,2.53,22.736,22.736,0,0,0,.574-2.547c.4-.949.813-1.788,1.093-2.662ZM70.35,174.16a7.657,7.657,0,0,1-1.481-1.456,8.853,8.853,0,0,1-.856-1.495,13.828,13.828,0,0,1-.681-1.577,21.212,21.212,0,0,0,1.629,2.249,22.312,22.312,0,0,0,1.389,2.279Zm31.13.436a3.354,3.354,0,0,1-.507.935,22.856,22.856,0,0,1-4.6,2.988,22.244,22.244,0,0,0,2.408-2.149,26.175,26.175,0,0,0,2.7-1.774Zm-2.01-34.035a5.489,5.489,0,0,1-.552-1.274,10.053,10.053,0,0,1,1.675,1.6,8.045,8.045,0,0,1,.86,2.041C100.478,141.645,99.862,141.172,99.47,140.561Zm7.4,9.222a9.19,9.19,0,0,1,.669,2.052,11.973,11.973,0,0,1,.082,2.107c-.15-.712-.376-1.4-.592-2.174a17.125,17.125,0,0,0-.16-1.985Zm-37.4,4.916a8.634,8.634,0,0,1,.886-2.416c.213-.409.85-.655,1.278-.959a13.17,13.17,0,0,0-.676,1.651l-.813.853-.674.871ZM57.343,167.123l.639,2.669a8.783,8.783,0,0,1-.825-1.23,10.425,10.425,0,0,1-.487-1.453,18.6,18.6,0,0,1-.5-1.989c.6,1.174,1.1,1.627,1.174,2Zm44.968,1.3a4.8,4.8,0,0,1-.465,1.356,4.146,4.146,0,0,1-1.1.928c.17-.431.348-.854.52-1.437C101.659,168.953,102,168.7,102.311,168.42Zm-2.47-31.34c.475.542.865,1.156,1.282,1.737a8.272,8.272,0,0,1-1.031-.782c-.53-.577-1.075-1.183-1.67-1.734l.1-.243a8.669,8.669,0,0,1,1.316,1.022Zm.826,3.225c-.147-.2-.12-.515-.195-.767.47.53.93,1.07,1.36,1.642a3.737,3.737,0,0,1,.367,1.151C101.542,141.353,101.036,140.87,100.667,140.305ZM58.1,155.435c.035.469.175.949.19,1.386A4.483,4.483,0,0,1,58,157.969l-.22-1.705c.068-.215.2-.526.325-.83Zm37.424,20.216a29.36,29.36,0,0,0,2.355-2.237,6.532,6.532,0,0,1,.939-.7l-.674.935a22.125,22.125,0,0,1-2.62,2.006ZM107.8,156.866a4.106,4.106,0,0,1,.23,1.047,8.574,8.574,0,0,1-.3,1.837,11.161,11.161,0,0,0-.093-1.554Zm-48.79,5.477c.28.608.61,1.184.86,1.8a3.935,3.935,0,0,1,.1.807,13.309,13.309,0,0,1-.911-1.385c-.02-.472-.047-.845-.046-1.221Zm30.136,14.384a2.93,2.93,0,0,1,.91.042c-.448.187-.892.4-1.36.55a11.8,11.8,0,0,1-1.838.136c1.34-.361,1.812-.588,2.288-.728Zm-7.266,3.94,2.028.373a1.291,1.291,0,0,1-.48.12,15.685,15.685,0,0,1-3.1-.48C81.3,180.679,81.613,180.623,81.88,180.667Zm10.348-1.318a6.081,6.081,0,0,1,.728-.16c-.4.2-.8.417-1.22.59a2.245,2.245,0,0,1-.742.049c.563-.183.89-.371,1.234-.48ZM68.677,164.79c.079-.029.274.384.415.59a4.648,4.648,0,0,1-.207.8c-.04.063-.33-.306-.61-.7C68.442,165.156,68.526,164.845,68.677,164.79Zm2.183-10.1c-.16.226-.43.447-.567.448-.084,0-.063-.5.028-.651a2.079,2.079,0,0,1,.708-.585,6.283,6.283,0,0,1-.169.788Zm32.432,17.448a2.869,2.869,0,0,1,.707-.409,5.448,5.448,0,0,1-.532.928,2.967,2.967,0,0,1-.733.488A6.342,6.342,0,0,1,103.292,172.135Zm-17.03-39.817a9.73,9.73,0,0,1,1.342.35c-.147.026-.32.111-.43.07-.44-.128-.865-.293-1.35-.462a4.353,4.353,0,0,1,.438.042Zm14.332,11.075c-.147-.259-.223-.553-.368-.812a4.579,4.579,0,0,1,.58.746c.155.259.259.551.518,1.131C100.95,143.917,100.745,143.666,100.594,143.393ZM75.418,176.185a5.9,5.9,0,0,1-.872-.046,2.456,2.456,0,0,1-.309-.375,3.942,3.942,0,0,1,.627-.166C75.144,175.9,75.268,176.058,75.418,176.185Zm6.694-44.872c-.233-.067-.33-.222-.49-.339a2.9,2.9,0,0,1,.64-.06,4.334,4.334,0,0,1,.933.4C82.623,131.3,82.27,131.348,82.112,131.313Zm23.08,34.656a7,7,0,0,1-.318,1.028,5.642,5.642,0,0,1-.517.83l.253-.963c.22-.337.413-.61.583-.9Zm-.513-8.927a.686.686,0,0,1,.327-.426,1.211,1.211,0,0,1,.123.538,5.716,5.716,0,0,1-.268.918,4.936,4.936,0,0,1-.182-1.03Zm-13.258-25.83a4.853,4.853,0,0,1,.665.2,2.866,2.866,0,0,1,.458.31l-.9-.179Zm94.5-30a5.618,5.618,0,0,1,.968.42,3.4,3.4,0,0,1-.85.5,10.453,10.453,0,0,1-4.152.524,11.532,11.532,0,0,0,1.867.663c-.632-.018-1.294-.075-1.909-.115a18.168,18.168,0,0,1-2.208-.026,6.892,6.892,0,0,0,1.9,1.185,10.7,10.7,0,0,0,3.638.621,13.627,13.627,0,0,0,7.871-2.28c.712-.447.975-1.447,1.336-2.168a12.1,12.1,0,0,0,2.694-.426l-.057.03c.334-.423.66-.857.977-1.3a16.227,16.227,0,0,0,2.5-9.682,22.274,22.274,0,0,0-3.112-9.556c-.66-1.213-1.335-2.422-2.127-3.615a12.769,12.769,0,0,0-3.025-3.164,20.876,20.876,0,0,0-7.709-3.448,25.573,25.573,0,0,0-8.175-.5,26.3,26.3,0,0,0-12.73,4.81,23.153,23.153,0,0,0-8.433,11.473,25.8,25.8,0,0,0-.69,13.648,27.838,27.838,0,0,0,2.276,6.428,26.178,26.178,0,0,0,4.033,5.74A24.565,24.565,0,0,0,167,115.7a25.862,25.862,0,0,0,7.266,2.446,26.061,26.061,0,0,0,14.532-1.743,16.287,16.287,0,0,0,7.98-6.812,4.377,4.377,0,0,0,.519-3.082,3.611,3.611,0,0,0-1.385-2.12,8.848,8.848,0,0,0-5.32-1.38c-1.081.012-2.28-.266-3.048.047A36.467,36.467,0,0,1,184,104.516a6.981,6.981,0,0,1-3.773.278,25.547,25.547,0,0,1-4.676-1.262c-2.569-1.245-3.66-3.27-4.713-5.6-.8-1.89-1.876-4.12-1.779-6.411a9.208,9.208,0,0,1,.511-1.933A9.377,9.377,0,0,1,170.8,87a9.724,9.724,0,0,1,2.25-2.172,10.988,10.988,0,0,1,3.1-1.52,11.33,11.33,0,0,1,3.526-.591,12.26,12.26,0,0,1,5.022,1.194,9.682,9.682,0,0,1,4.138,3,8.018,8.018,0,0,1,1.926,4.969,6.171,6.171,0,0,1-.532,2.5,5.5,5.5,0,0,1-3.9,2.776,5.992,5.992,0,0,1-4.87-.8c-.363-.257-.965-.347-1.466-.726a6.918,6.918,0,0,0-.671,1.166,4.479,4.479,0,0,0-.316,1.388c-.049.328.467.65.729.988-.4-.314-.787-.675-1.153-.979a12.68,12.68,0,0,1-1.69-1.266,8.139,8.139,0,0,0,1.77,4.9c.048.058.583-.07.9,0l1.37.3a9.564,9.564,0,0,0,1.222-.406l1.153-.392a5.491,5.491,0,0,1,2.607-.115ZM177.174,75.7a7.645,7.645,0,0,1,1.77-.176c.114,0,.22.194.328.3-.535.1-1.056.3-1.574.427-.294.073-.6.132-.888.23a3.831,3.831,0,0,1-.777.408,20.256,20.256,0,0,0-2.934,1.061c-.049-.11-.148-.312-.14-.318a12.245,12.245,0,0,1,1.64-.667,11.548,11.548,0,0,1,1.717-.5,1.88,1.88,0,0,1,.543.042C176.954,76.233,176.967,75.78,177.174,75.7ZM194.092,85.84a7.228,7.228,0,0,1,.185.94c-.293-.246-.734-.412-.842-.7a14.643,14.643,0,0,0-7.364-7.733,17.405,17.405,0,0,0-3.81-1.209,2.707,2.707,0,0,1-.72-.348,3.1,3.1,0,0,1,.813-.114,21.62,21.62,0,0,1,3.913,1.178,2.125,2.125,0,0,0,1.29-.194c.2-.066.222-.424.322-.653a7.216,7.216,0,0,1,.768,1.368,3.154,3.154,0,0,1,.012,1.2q.641-.066,1.33-.094l.816-.1.046.313-.875-.267a1.651,1.651,0,0,0,.766,1.8,5.685,5.685,0,0,1,1.572,1.223l.721-.613a2.973,2.973,0,0,1,.17.25l-.925.354A16.486,16.486,0,0,1,194.092,85.84Zm.4,5.725a11.979,11.979,0,0,0,.005-3.108,12.287,12.287,0,0,1,.726,3.56,2.605,2.605,0,0,1-.086.576,6.06,6.06,0,0,1-.285.97,6.3,6.3,0,0,1-.371.932,7.31,7.31,0,0,0-.092-1.129,5.794,5.794,0,0,0-.19-1A3.228,3.228,0,0,0,194.5,91.565Zm-27.45-10.173a14.032,14.032,0,0,1,1.563-1.628,11.447,11.447,0,0,1,1.587-1.208,7.446,7.446,0,0,1,1.04-.622,7.572,7.572,0,0,1-.7,1.092c-.467.442-1.06.763-1.723,1.38a14.736,14.736,0,0,0-1.77.986Zm26.261,16.08a6.6,6.6,0,0,1-1.1,2.21c-.132.18-.662.139-1.012.134a5.642,5.642,0,0,0,.526-.949,5.725,5.725,0,0,0,.421-1.046,8.15,8.15,0,0,0,1.16-.348Zm-34.764-7.859a5.579,5.579,0,0,1,.1-1.806,10.554,10.554,0,0,1,1.6-2.369,6.269,6.269,0,0,0-.069.87,21.593,21.593,0,0,0-1.63,3.305Zm17.74-15.748a7.007,7.007,0,0,1,2.13-.882c.377-.08.89.377,1.317.619a13.478,13.478,0,0,0-1.76.367,12.893,12.893,0,0,0-1.687-.1Zm-.091-2.9-1.676.35-1.644.463a4.725,4.725,0,0,1-.931-.021c.788-.384,1.616-.66,2.34-.947.815.039,1.367.106,1.911.155Zm-15.229,18.32c-.051-.254-.2-.554-.131-.767a12.98,12.98,0,0,1,1.15-2.374,13.742,13.742,0,0,0-.327,1.588A12.971,12.971,0,0,0,160.963,89.283Zm22.971-15.374a4.2,4.2,0,0,1,1.643.118,5.5,5.5,0,0,1,1.458,1.02,14.834,14.834,0,0,0-1.587-.214,11.754,11.754,0,0,0-1.514-.924Zm15.278,20.372a4.512,4.512,0,0,1-.08,1.4,9.359,9.359,0,0,1-1.078,2.047,11.116,11.116,0,0,0,.412-1.82A12.106,12.106,0,0,0,199.212,94.281Zm-6.253-19.527c.238.057.59.07.7.19a18.529,18.529,0,0,1,2.016,2.86c-.444-.361-.846-.748-1.577-1.268a17.069,17.069,0,0,0-1.142-1.782Zm-21.984-.123a2.355,2.355,0,0,1-.9-.05,5.594,5.594,0,0,1,1.193-.819,5.008,5.008,0,0,1,1.4-.012,16.364,16.364,0,0,1-1.688.881Zm6.423-4.024a7.169,7.169,0,0,1,1.322-.259,5.4,5.4,0,0,1,1.29.276c-.448.07-.9.1-1.383.219l-1.23-.236Zm11.666,31.7a4.3,4.3,0,0,1-1.391.844,1.925,1.925,0,0,1-1.007-.257,9.206,9.206,0,0,0,.97-.636,8.328,8.328,0,0,0,1.428.05ZM168.127,110.7c.422.433.729.97,1.131,1.425a2.656,2.656,0,0,1-.876-.35,10.177,10.177,0,0,1-1.625-1.634,13.152,13.152,0,0,1,1.37.56Zm20.321-35.332a1.856,1.856,0,0,1,.9.153,2.421,2.421,0,0,1,.532.772c-.294-.046-.588-.09-.976-.149A8.1,8.1,0,0,0,188.448,75.364Zm-19.834-2.48a9.4,9.4,0,0,1,1.3-.384,3.5,3.5,0,0,1-.615.562c-.426.244-.912.39-1.348.646l-.164-.19a3.2,3.2,0,0,1,.831-.635Zm2.266.589c-.15.042-.35-.081-.527-.118a8.7,8.7,0,0,1,1.2-.567c.137-.052.332.026.78.081-.674.284-1.05.482-1.448.6Zm-5.493,30.168a2.864,2.864,0,0,1,.617.552,1.952,1.952,0,0,1,.149.73,8.192,8.192,0,0,1-.726-.706l-.04-.576Zm27.78-24.359c-.491-.448-1.043-.824-1.563-1.236a4.179,4.179,0,0,1-.44-.594,6.464,6.464,0,0,1,.658.315,15.88,15.88,0,0,1,1.346,1.515Zm-11.361-8.538a1.762,1.762,0,0,1,.668-.165,5.525,5.525,0,0,1,1.092.354c-.291,0-.582.028-.967.05Zm-13.684,35.923a10.658,10.658,0,0,1,1.057.514c.12.073.159.3.24.46l-.964-.283-.333-.691Zm25.72-23.286c-.075-.159.013-.394.01-.591a4.084,4.084,0,0,1,.535.681,4.274,4.274,0,0,1,.295,1.053C194.222,83.847,193.957,83.652,193.842,83.381Zm4.9,2.659-.2-1.16c.082.065.2.112.239.2A12.753,12.753,0,0,1,199.3,86.8c-.348-.478-.52-.608-.552-.76Zm-2.56-5.544a2.226,2.226,0,0,1-.13-.437,7.833,7.833,0,0,1,.506.627c.056.085.03.224.05.466-.188-.289-.328-.466-.427-.656Zm-2.03,18.017c-.06-.042.044-.324.052-.506a2.144,2.144,0,0,1,.608-.128c.07.009.016.319,0,.678-.29.01-.528.05-.663-.044Zm-5.827,2.735a.606.606,0,0,1,.466.169c.046.064-.158.347-.261.367a1.2,1.2,0,0,1-.585-.168C188.113,101.477,188.232,101.25,188.327,101.248Zm2.947-27.515a1.44,1.44,0,0,1-.222-.536,2.6,2.6,0,0,1,.634.267c.137.105.168.3.283.532a2.676,2.676,0,0,1-.7-.263ZM163.415,80.5l.558-.633c0,.11.043.268-.01.318-.2.195-.434.352-.679.553A1.227,1.227,0,0,1,163.415,80.5Zm9.493-5.8a2.981,2.981,0,0,1-.546.05,3.282,3.282,0,0,1,.516-.268,2.888,2.888,0,0,1,.76-.073c-.377.135-.55.235-.73.29Zm24.766,16.143a6.162,6.162,0,0,1,.47.461,1.03,1.03,0,0,1-.116.291,4.474,4.474,0,0,1-.507-.262C197.6,91.082,197.636,90.962,197.674,90.843ZM161.593,82.4c-.126.1-.288.07-.435.1a1.135,1.135,0,0,1,.134-.38,1.867,1.867,0,0,1,.577-.333C161.705,82.1,161.681,82.338,161.593,82.4Zm25.579-9.328a2.117,2.117,0,0,1,.648.154,2.73,2.73,0,0,1,.49.374l-.616-.106a5.437,5.437,0,0,0-.522-.422Zm-5.637.781c-.114-.034-.18-.225-.215-.35a.521.521,0,0,1,.338-.089,2.508,2.508,0,0,1,.518.316c-.308.065-.506.162-.64.123Zm-18.143,2.73a2.146,2.146,0,0,1,.244-.367,1.165,1.165,0,0,1,.3-.164l-.261.539Z" fill="#fff"/>
  </g>
</svg>
